<svg xmlns="http://www.w3.org/2000/svg" width="826.737" height="452.812" viewBox="0 0 826.737 452.812">
  <path id="Path_101190" data-name="Path 101190" d="M151.021,122.019c1.641,0,1.843.6,3.25,0s5.558-3.33,6.964-3.707,2.307.122.234,1.277-6.231,3.649-5.49,3.46a51.536,51.536,0,0,0,5.827-2.492c2.978-1.4,2.706-.781,3.475-2.275S166.457,116,166.457,116s4.717,4.832,5.153,5.019.606-.03.838-.624.736-1.434,1.407-1.152.1,1.432.5,1.589,1.07-.03,2.31-.437.6-1.307.6-1.307-.132-.035,1.307-.157,5.957,1.527,7.3,2.058,5.39.968,6.53,1.337,1.569-.654,3.148.19,2.744,1.963,1.569,2.554-4.116,1.03-2.609,1.4a23,23,0,0,0,5.959.781c2.175-.065,6.091-.873,7.294-.873s1.943.748,3.083,2.649,2.038,2.649,2.474,2.806-.436-.9-.2-1.841a7.326,7.326,0,0,0-.5-3.395c-.264-.626,0-.938-.536-1.843s-1.4-.748.2-1.524,2.709-1.931,4.652-1.684,2.474,2.714,4.151,2.9,1.978.841,4.852,1.063,1.676.032,4.889.249,2.043-.347,2.711-2,1.407-1.966,2.175-1.9,3.48.437,3.48.781-1.137,2.115-.569,2.988a13.387,13.387,0,0,0,2.884,2.31s-.5-2-.5-2.215-.17-1.774.167-2.058,2.242.157,3.447-2.183-.808-2.213-.808-2.213-.736.035-.367-.933,2.509-1.559,2.509-1.559.137.437-.135-.347-1.669-.621-3.178-.716-2.542-.307-2.811-1.589a36.808,36.808,0,0,1-.369-5.8c0-1.841,1.474-1.187,1.741-2.213a26.618,26.618,0,0,0-.434-7.077c-.369-1.028.534-3.243.738-4.707s1.706-.813,1.706-.813c-.269-.5.432-1.9,2.442-2.492s5.827.03,5.827.03-.339.032-1.275,1.247-.332,3.37-1.741,4.894-4.986,1.03-4.986,1.03,1.1,2.527.636,3.333a9.97,9.97,0,0,0-.768,2.467s3.145.871,3.313,2.866,1.739,2.337,2.108,4.176-1.539,3.367-1.137,3.647.534.407,1.676.469,2.676.279,2.676.279a1.919,1.919,0,0,0-.067,1.933c.571,1,.135,1.624.2,2.681s.7,1.963.968,1.779a16.059,16.059,0,0,0,1.779-4.116c.264-1.217.466-1.871,1-1.871a5.9,5.9,0,0,1,2.547,2.245c.2.591.334,1.4-.669,3.023s-.9,2.37-.032,2.993a12.734,12.734,0,0,0,2.474,1.187c1.571.746,1.275.681,2.242.4s-.4-2.741-.3-2.8,2.312-.312,1.813-1.561-1.01-1.868.027-2.492,1.776-1.122,1.776-1.122a11.994,11.994,0,0,1-1.3-2.931c-.736-2.09.634-1.524,3.517-1.31s3.008,1.215,4.55,2,.569,1.06,1.07,2.307-1.272,1.434-1.272,1.434-1.172.217-.9,1.182a17.3,17.3,0,0,0,1.641,3.617c.836,1.5-.232,2.527-1.542,3.742a6.291,6.291,0,0,1-4.383,1.589c-1.542.03-2.21.654-2.307.217a1.4,1.4,0,0,0-1.676-.654c-.841.187-2.749.938-2.078,1.185s2.445.187,1.709,1.559-1.374,1.372-2.846,1.217-2.844-.157-3.786-.222l-5.555-.342a31.715,31.715,0,0,0,5.595,2.681,12.06,12.06,0,0,0,5.089.312s-1.008,1.868-2.215,3.864-2.342,1.125-3.342,1.25-1.609.935-3.482,1.182-5.792-.529-5.191-.247.871.776,1.941.935a4.553,4.553,0,0,1,2.679,1.122c.938.778-.6.968-1.838,1.182a2.617,2.617,0,0,0-2.143,1.215c-.571.783-2.681,3.8-3.35,4.739a10.3,10.3,0,0,0-1.539,4.333c-.272,1.843-1.841,4.053-1.137,4.52s3.345.531,4.452,1.217,2.345,4.051,3.178,5.331,1.507,2.245,2.442,1.247,2.781-.748,4.522-.125a26.575,26.575,0,0,1,6.4,4.173c1.1,1.093,3.043.908,5.218,1.22s2.422,1.13,2.422,1.13,2.265.117,1.33,1.083-1.207.03-.269,1.651a7.349,7.349,0,0,1,.639,4.894c-.272,1.093,3,.544,4.373,1.352s1.447,4.106,2.155,3.7,1.871-1.122,2.005-2a16.859,16.859,0,0,0-.167-3.522c-.135-1.5-.5-4.243-1.24-5.331s1.329-1.527.993-2-.257-1.4,1.15-1.779,1.509-.03,2.277-.624.9-3.365,1.035-4.363a10.9,10.9,0,0,0-.566-3.959,25.759,25.759,0,0,0-2.208-3.959c-.509-.561-1.137-.718.237-2.462s.564-1.372.364-1.9-.5-1.838-.768-3.021.569-2.5.065-4.181-1.035-1.307-.935-1.684,3.278-.279,5.625-.03a13.334,13.334,0,0,0,3.946-.249,8.12,8.12,0,0,1,3.18,1.5c1.3.838,1.808.624,2.479,1.651s1.035,1.589,2.4,1.527a7.359,7.359,0,0,1,2.851.591s-.973.564-.8,2.4a27.6,27.6,0,0,1-.17,3.926c.032.748.407.781,1.035.876s2.35,1.619,4.118,2.242,2.242.434,2.811-1,.706-1.31,1.409-1.4.935.157,1.237-.155-.536-.938-.337-1.931a6.95,6.95,0,0,1,1.978-3.058c.8-.748,1.372.748,2.075,2.12s3.145,5.829,3.849,7.291,1.606,1.559.768,2.933-1.24,1.961.067,2.584,2.479,1.716,2.382,2.744-.374,1.06.065,1.342,2.006-.561,3.145-.062a11.139,11.139,0,0,1,3.315,1.776c.8.813.738,1.093-.4,1.494a19.989,19.989,0,0,0-2.846,1.155c-.571.344-1.472,1-1.439,1.529s-.235,1.4.671.716a12.088,12.088,0,0,1,3.447-1.684c1.07-.309.267-.032,1.24-.155s1.906.466,3.248.841.968,1.215.634,2a2.379,2.379,0,0,0-.1,2.4c.539.871-.232,1.651-1.407,2.711s-2.04,1.215-3.949,1.464-2.816,1.4-4.151,2.647-2.008.935-3.951,1.03-1.17-.965-1.771-.748a8.143,8.143,0,0,1-2.612,1c-1.242.122-5.428.185-7.034.651s-1.1,1.559-1.5,2.462-1.038.529-2.242.935-2.647,2.185-4.048,4.615a15.148,15.148,0,0,1-3.315,3.926,10.509,10.509,0,0,0,3.345-2.494c.973-1.185,5.021-3.989,6.261-4.859s3.916-2.153,4.55-1.968,2.215,1.4,2.215,2.028-.471,1.122-1.609,2.183-2.644,0-2.544.434a2.933,2.933,0,0,0,1.773,1.651c.873.22.833,1.282.833,1.811s-.5,1.215,1.507,2.9a6.111,6.111,0,0,0,4.892,1.714c1.472-.092.7.5,1.3.439s.736-1.217.935-2.153a3.885,3.885,0,0,1,1.073-2.213c.539-.407.935-1.155,1.107.282s-.6,3.4-1.379,3.831-.6,1-.6,1.434-.873.469-2.951,1.621-2.741,1.434-3.111,1.277-1.137.19-2.14,1.093-2.073,2.123-2.809,2.088-1.374-.342-.372-1.372,1.342-2.462,2.342-2.961a4.051,4.051,0,0,1,2.31-.436c.838,0,.437-.5,1.1-1s-.5-.347-1.641-.531-.267-1.187-.267-1.187l-1.175.624a14.83,14.83,0,0,1-2.242,1c-.464.057-.364.369-.5.559a6.968,6.968,0,0,1-1.808.312s-.871,1.774-2.178,2.025-.4.155-1.34.559-.763-.466-.968-.217a6.158,6.158,0,0,1-1.4,1.247c-1.038.783-1.644,1.03-2.377,3.866a6.91,6.91,0,0,0,.1,4.3c-.032.437-1.307-.282-1.671.06A5.959,5.959,0,0,1,294.9,221.8c-1.1.312-3.278.873-3.782,1.4s-.536,1.277-.771,2.365a23.661,23.661,0,0,1-1.539,3.649,1.76,1.76,0,0,0-.6-1.776c-.9-.748-.766-1.434-.766-1.434a4.678,4.678,0,0,0,.132,2.088c.339,1.058,1,2.12.7,3.273s-.873,2.589-1.571,2.993.165-.781.165-1.714-.466-1-.771-1.462-.3-1.654.232-3.248-.5-.621-1.1.439-1.033,3.023-.1,4.3-.6,1.15.035,2.991-.768,2.744-.506,3.026,1.008-.125,1.342.776-.668.5-1,.751-.172.591.032,1.093.6.182.434.342a3.628,3.628,0,0,1-1.507,1.06c-.868.279-.938-.16-1.474.466s-.933,1.185-1.5,1.9-.968.471-1.572.968-.836.905-1.576,1.529a18.3,18.3,0,0,0-3.313,2.8c-.9,1.217-.671,1.529-1.108,3.495s1.108,5.393,2.078,8.636,1.372,2.337,1.237,3.365a5.548,5.548,0,0,1-1.275,2.991c-.7.718-1.1-.5-2.068-1.217s-.2-1.212-1.14-2.709a5.247,5.247,0,0,1-.97-3.118A13.911,13.911,0,0,0,270.5,258c-.5-1.187-1.579-2.684-3.183-2.088s-1.2.312-2.075.057-3.178-1.18-4.353-.559-4.882-.187-5.657,0-1.342.254-1.342.783-.329.619,1.043,1,1.172.778,1.075,1.372-1.11-.312-1.646-.531-1.035.437-1.973.437-1.1-.9-1.946-1.028a7.134,7.134,0,0,1-1.973-.312,7.216,7.216,0,0,0-2.811-.781c-.935.065-4.552,2.464-6.261,3.742a10.381,10.381,0,0,0-3.41,3.552c-.4,1.03-.439,1.125.935,2.652s.736,1.282.469,2.153-1.073,1.931-2.04,4.176-.4,3.335.766,5.488a20.142,20.142,0,0,0,3.148,4.612c.94.9,1.6,1.871,2.41,2.212a3.2,3.2,0,0,1,1.34.841c.369.377.269.531,1.544.19a14.533,14.533,0,0,1,3.11-.843,3.293,3.293,0,0,1,2.242.5c.5.464.569.187.569-.065a6.29,6.29,0,0,1,.534-1.434,13.552,13.552,0,0,0,1.542-2.9c.2-.935.2-2.806,1.374-2.931a30.554,30.554,0,0,1,5.957-.559c2.275.152,1.27,1.277.671,2.459s-.843,1.31-.843,2.213.272.908-.461,1.437-.272-.312-.571.22a4.661,4.661,0,0,1-1.24,1.152c.132-.122.469.9.469,1.4s-.1.746-.1,1.966-2.377,2.462-2.377,2.462a4.668,4.668,0,0,0,2.14.5,9.78,9.78,0,0,1,4.151.624c1.34.621,3.884-.5,5.76.437s1.207,1.494,1.337,2.37a27.057,27.057,0,0,1,.207,4.55c-.14.686-1.01,2.617-1.479,3.991s1.339,2.37,3.018,3.49a14,14,0,0,0,4.016,1.871c.863.249,2.474-1.312,5.423-1.122a4.633,4.633,0,0,1,3.946,2.681,12.722,12.722,0,0,1,1.676-3.679c1.342-2.12,1.4-2.744,3.21-3.43s2.412-.808,5.36-1.744,2.407-.247,3.944-.125a43.021,43.021,0,0,1,8.641,1.494c3.547,1.06,8.975,1.372,11.045,2.245s3.013,3.308,5.158,5.3,4.817,3.8,5.957,4.737,7.5,1.811,8.9,2.37,3.348,2.866,3.48,4.238,1.539,2.058,3.48,2.869,2.544,1.749,3.819,4.241.868,3.178,2.609,3.8,13.794,3.866,16.8,5.051,6.83,4.365,7.835,4.739,2.814-.314,3.617.122-.471,2.806.536,4.49,1.07,1.808.466,3.056-3.013,4.24-3.946,5.735S373.6,358.37,372.46,359s-2.145,0-1.137,1.245.067,2.3-.806,3.43.07,1-.2,4.615,0,7.541-.4,9.1-2.739-1.369-5.42,2-3.412,5.922-5.019,6.293a21.437,21.437,0,0,0-6.628,3.43,8.061,8.061,0,0,0-2.345,3.367c-.8,1.741-1.606,5.3-2.477,7.481s-2.275,3.43-5.488,6.358-4.622,5.924-6.7,8.231-1.539,1.806-1.971,2.242c-1.11,1.113-5.68-1.793-4.5-.185.871,1.182-.491,0,.244,1.117s1.275,1.561-.334,3.557-3.46,1.6-4.732,1.913-3.17-1.31-3.3-.5-.868,2.826-1.876,3.323-3.679,1.25-3.609,1.562c1.265,5.907,3.864,6.523,1.112,6.251-7.551-.736-2.165-2.529-7.411,8.458-.8,1.686-1.606.813-1.472,2.809s0,3.49,1.073,4.739.334,1.182-1.474,2.866-1.943,1.437-3.614,3.991-3.283,2.43-2.681,4.365.738,4.8,1.744,7.665,3.078,2.367,6.361,4.365,3.682.933,5.288,1.434-1.14.624-4.021,1.12-4.749,1.06-6.76.629-6.757-3.183-8.369-4.368-4.216-3.3-5.153-5.36-1.606-4.113-2.811-6.919-.337-4.552.2-10.726.938-10.97,1.806-14.273,3.55-18.02,4.283-21.826,4.153-19.262,4.42-21.694a58.584,58.584,0,0,1,1-6.735c.536-2.43.2-7.358.2-7.605s-.2-.434-.943-2.741a6.867,6.867,0,0,0-3.612-4.238c-1.671-1-3.415-2.247-4.752-3.183a20.3,20.3,0,0,1-4.285-3.926c-1.342-1.684-2.614-5.113-3.283-6.548a87.694,87.694,0,0,0-5.42-9.661c-2.275-3.367-2.412-3.432-3.55-6.987s1-3.614,1.407-5.61,1.739-3.991,3.213-6.792,3.415-3.617,4.555-6.111.267-2.5-.137-4.926.137-2.055-.606-3.367-1.132-2.926-1.8-3.365-1.671-.748-2.275-.06-1.674,2.676-2.342,2.8-.94-.626-1.34-1.063-2.342-.434-2.746-.871-1.4-.5-2.073-.811A30.211,30.211,0,0,1,265.472,307a5.335,5.335,0,0,1-1.671-3.739c0-1.619-1.4-2.247-4.55-4.49s-4.487-2.557-8.306-3.492-5.353-3.614-6.628-4.363-1.135-1.559-3.949-1.247-6.226-1.25-8.371-2.12-5.957-1.494-7.568-2.554-4.413-1.437-5.617-3.991-1.008-1.561-.536-3.8-2.746-4.113-4.689-6.233-3.412-2.43-4.418-5.051-2.474-2.494-4.418-4.363-2.01-4.243-2.814-6.361-6.154-5.176-6.154-5.176,1.4,3.557,2,4.989a54.048,54.048,0,0,0,3.619,7.421c1.6,2.554,3.013,3.178,4.485,5.735s.067,4.113-.471,3.118-2.679-1.437-2.679-2.619a5.915,5.915,0,0,0-1-2.866c-.466-.935-2.544-2-4.555-3.619s-3.41-2.367-2.14-2.367,3.081,1.182,2.744.436-2.609-3.056-3.682-4.677-1.409-3.43-2.477-6.174-5.019-5.363-6.964-5.548-2.474-1.12-3.143-3.116-.8-4.116-1.676-5.675-4.62-6.795-4.685-8.79-1.14-7.792.2-11.035,1.005-10.474.8-11.908-2.612-4.176-2.612-5.236,1.409-.437,2.479-.127,3.345,1.247,3.345,1.247a29.08,29.08,0,0,0-2.809-4.363,15.407,15.407,0,0,0-5.625-2.869c-1.409-.309-3.213-.811-3.949-1.993s-1.539-2.744-2.078-3.744-2.814-2.178-3.345-3.24-.4-3.116-1.137-4.176a2.57,2.57,0,0,0-3.018-1.25c-1.207.437-1.6-.624-2.539-2.183a6.822,6.822,0,0,0-3.617-2.489,10.488,10.488,0,0,1-2.811-3.617c-.132-.686-3.417-4.3-4.485-5.051s-11.449-4.116-11.716-4.116a20.393,20.393,0,0,1-4.083.19c-.8-.252-3.55-2.619-4.951-3.118s-2.417.559-3.081,2.12-3.954,4.238-5.76,5.42-3.283,1.312-3.15.688a11.71,11.71,0,0,1,.673-3.118c.6-1.5.935-1.931,2.809-2.869s1.806-1,1.075-.935-1.275-.122.2-1,2.075-1,2.006-1.749-3.213,1-5.223,2.622a18.277,18.277,0,0,0-4.951,5.607c-1.741,2.871.2,1.808-1.272,3.682s-6.493,5.672-7.965,7.107-7.566,4.612-10.047,5.363-3.477,1.06-4.685,2.058-4.216,1.307-3.213.624,2.879-2.25,4.151-3a53.968,53.968,0,0,1,5.69-2.492,18.426,18.426,0,0,0,5.226-3.679,32.58,32.58,0,0,0,3.278-4.862c.935-1.5,1.14-2.183-.8-1.559a8.235,8.235,0,0,1-4.956,0c-1-.374-3.617,1.182-4.552.5s.067-2.12-.539-2.806-2.676-.247-4.016-.5-3.21-1.307-3.21-3.178-1.339-3.492-.606-4.924S82.1,154.5,83.3,153.7a17.445,17.445,0,0,1,5.221-1.873,3.922,3.922,0,0,0,2.213-1.31c.6-.621-1.407-2.869-1.407-2.869s.334-.247,1.137-.748.2-1.557-1.207-1.372-4.418,1.626-6.291,2.12-4.415.187-4.35-.621.466-1.31-.2-1.933-1.207-1.31-.536-1.619,4.822-2.619,4.822-2.619a6.038,6.038,0,0,0,3.078,1.806c1.606.19,5.019-2.8,5.019-2.8-2.14-1.312-1.674-1.684-1.674-1.684s-3.482-.062-4.285-.564a3.536,3.536,0,0,1-1.27-2.365c-.2-.876-3.614-1.561-2.677-3s2.677-1.931,3.814-3.362,2.143-4.118,5.425-5.612,7.231-2.869,8.97-4.116,2.544-.06,3.215.125,4.822-.185,6.426-.185,1.873,1.806,2.41,2.24,14.662.876,14.662.876,11.981.187,14.393.873,6.762,2.494,6.762,2.494C149.617,125.234,149.385,122.019,151.021,122.019ZM312,49.7s-1.207,4.989-6.022,6.361a128.808,128.808,0,0,0-14.063,5.485c-.4.247.536,2.991,1.741,4.363s2.342,2.307,3.412,3.679,2.946,1.247,4.423,2.681,2.539.933,6.56,1,2.946.374,7.431.624,9.174.624,10.714,2,3.747,6.735,5.153,9.975,3.886,8.6,3.886,9.1-1.544,4.428-1.544,5.049a5.84,5.84,0,0,0,1.544,2.557c.731.873.332,1.559.2,2.367a8.467,8.467,0,0,0,.938,3.12c.135.247,2.14-2,3.415-2.37s4.42,2.245,4.42,4.053c0,4.1,1.115,2.7-5.558,7.543-.878.639-1.739,5.548-1.07,7.915s2.275,5.176,3.547,8.543,5.021,8.1,6.224,10.287,1.542,5.173,4.218,5.862,5.223,1.619,7.164,2.055,3.215,1.06,4.151-.748,2.814-8.666,4.355-13.654-.137-6.483,3.48-7.6,9.371-3.367,10.911-4.053,1.275-5.61,4.687-7.236,3.884-1.492,7.229-2.554a45.454,45.454,0,0,0,11.385-5.548c3.348-2.37,4.283-1.122,5.49-3.305s-1.207-5.363-1.472-8.6,1.073-3.43,1.736-6.361,1.008-4.862,3.617-6.857,4.016-3.113,3.549-4.986-1.806-4.677-1.806-6.735.466-.871-.6-3.737-1.073-3.243-.07-5.924,3.684-1.993,3.485-3.183-4.285-2.991-4.35-6.3.736-4.3,1.4-5.111,7.5-6.233,7.967-6.735-.132-1.868,3.213-3.49,4.485-2.679,5.757-3.18,3.283-.434-.6-1.559-4.749-1.619-7.3-1.307-3.41,1.746-7.967,2.183a40.47,40.47,0,0,0-9.711,2.557s1.544-1.372.2-2.684,3.482-5.61,4.288-6.111-6.3-2.242-9.98-2.926-10.911-2.869-15.061-2.559-10.242.252-12.32.935-1.8,3.367-4.151,3.492-6.693-1.369-10.042-.873S351.5,30,350.9,30.125s2.078,1.746,3.819,2.12,4.013,3.991,4.013,3.991-4.682-1.561-9.439-2.871-10.312,0-12.253.564a30.971,30.971,0,0,1-8.369,1.806c-3.884.19-8.3,3.367-10.509,4.862s-9.1,5.488-10.846,6.423-1.073,1.372.8,1.873S312,49.7,312,49.7Zm-99.218,51.539c.534,2.285.534,5.567-.718,4.156s-2.275-4.283-4.28-3.12-4.2.836-3.839.586-.045-1.5-1.075-1.871-1.649.207-2.716.833-4.465,1.452-3.081.369.935-1.659.444-2.908-4.019.873-5.892,2.205-2.988,3.365-4.106,4.737-.312,2.247,1.382,2.741,4.423.833,2.143,1.666-4.016,1.409-2.854,2.12,3.17.831,5.176.579,3.707-.786,6.919.087a20.115,20.115,0,0,0,5.131.828,10.2,10.2,0,0,1-3.348,1.125c-2.143.372-6.071,0-8.082.372s-5.173.91-4.37,1.661a8.239,8.239,0,0,0,4.2,2.786c2.766.873,3.26.042,4.909.454s.761,2.287,1.2,2.579,3.574-.247,6.7-.831,1.963-1.083,4.42-1.706,2.539-2.489,3.971-2.908.4.958,2.1,1.372.758.541,2.589.833,1.472,1,3.258.871,3.884-1.327,3.614-1.539a1.557,1.557,0,0,1-.352-1.576c.177-.831-1.793.165-2.5.581s-.669-1.122.843-1.871,2.866,0,3.754,0,.092-2.579-1.519-2.991-2.32-1.417-4.732-2.744-1.16-1.913-1.873-3.654-2.232-6.9-3.572-7.817-2.766-.666-4.1-1.579A9.15,9.15,0,0,0,212.785,101.241Zm-37.047-3.532c.584,1.659.669.621-.491,2.449s-.491,2.494-1.295,3.866-2.943,3.2-2.275,4.116,2.811,1.454,3.707,2.16,1.783,2.16,3.387,1.621a17.509,17.509,0,0,0,3.26-1.5c1.12-.579,2.055-1.245,2.008-2.7s-.09-2.158.362-2.033,1.157.788,1.514-.167a8.758,8.758,0,0,1,1.741-2.951c.756-.746,2.943-1.5,3.971-2.37s2.769-1.826,3.258-2.574-.9-1.33-1.739-1.666-1.828-1.659-3.794-1.659-3.036,1.494-2.946.828-1.339-1-2.14-1.287a6.9,6.9,0,0,0-4.108-.456,28.845,28.845,0,0,0-5.625,1.038C172.792,94.922,175.16,96.042,175.738,97.708Zm58.112,19.908c-.264.372-1.427.748-2.14,1.579s1.517.377,2.23.624,1.25.953,1.831,1.165a10.63,10.63,0,0,0,5-.294c1.292-.621,1.424-.831,1.292-1.117a19.49,19.49,0,0,0-4.552-3.786c-1.876-1-1.918-1.035-2.32-.788S234.12,117.24,233.85,117.616Zm-8.439-19.451c-1.21.6-2.088,1.327-.04,2.37a34.465,34.465,0,0,1,4.106,2.784c1.382.871,1.963,3.367,4.864,2.245s4.063-2.452,4.467-3.617-.4-1.412-1.117-2.494-.891-1.537-2.367-1.372-1.966.167-1.966.167a8.274,8.274,0,0,1,2.589-2.038c1.609-.791.267-1.33,1.025-2.078s-1.916-1.12-3.076-.833-1.207-.082-3.125-.165-4.954,1.664-4.822,2.285,1.564.377,2.9,1.125,1.739.664.4,2.784-2.05-.5-2.5-.833S226.667,97.541,225.412,98.165Zm-8.563-3.824c-2.005.19-2.681,1.579-1.921,1.786s1.25-.207,2.452,1.08,2.28,2,2.766-.122S219.927,94.047,216.849,94.341Zm-32.23-16.086c-2.235,1.788-2.674,3.2-4.415,4.325s-1.342,2.078-.758,2.7,2.32-.037,3.123-.454,1.472-1.454,1.963-.831,2.547-2.118,3.35-3.036a6.928,6.928,0,0,1,2.277-1.826c.225.042-.766,1.08-.4,1.953s1.961.915,3.392-.581.135-2.869,1.25-4.031,2.053-1-.132-2.04a3.179,3.179,0,0,0-4.021.668C189.8,75.638,189,74.763,184.618,78.255Zm13.614,2.829c-1.267.057-1.828.249-3.929,1.162s-2.988,3.283-3.477,4.572.219,1.29,2.143,2.038,4.6-.207,5.218-2,1.389.414,1.03,1.33,1.339.082,2.143-.334a12.794,12.794,0,0,1,3.39-.581,12.215,12.215,0,0,1-4.063,2.327,29.8,29.8,0,0,1-4.375,1.165c-.579.085.541.955,2.991,1.457s3.929-1.5,7.458-2.829,3.348-1.581,4.507-1.245,2.41-.584,3.836-.92,2.008.212,2.637-1.908,1.739-4.156-.269-4.283-2.143-.125-2.412,2.163-.447.873-.447.873-1.34-2-2.143-3.036-1.382-2.659-2.275-3.532-1.295.374-2.679,1.913-.267,2.118,1.118,2.784,2.365,2.37,1.7,2.826-1.429-.082-3.974.21-2.454-.791-3.168-1.122,1.2-1.038-1.522-2.16S199.128,81.038,198.233,81.083Zm-8.256,2.163c.282-.484-3.387,2.16-3.946,3.011s.559.706,1.674.666S189.043,84.842,189.976,83.246Zm7.054-5.51c-.918.412-.918.726.576.891s2.37-.5,2.055-1.12S197.766,77.4,197.031,77.736Zm7.608-7.895c-.98.162-3.881,1.185-4.041,1.679a3.966,3.966,0,0,0,.471,2.435c.447.851.606.978,3.1.312s4.223-1.956,3.392-2.185a17.394,17.394,0,0,0-2.07-.7c-.738-.1.646-.5,2.3-1.018S210,68.943,204.638,69.841Zm-8.456,1.307c-.706.324-.96.329.514.9s3.058.519,2.854.062A2.454,2.454,0,0,0,196.182,71.148Zm5.755-4.093a4.054,4.054,0,0,0-2.028,1.951c-.312.4,1.584-.287,2.452-.5s1.073.309,1.923-.439,2.522.022,4.041-.312,1.759-1.327,1.427-2.2S205.933,65.473,201.937,67.055Zm15.131,3.762c-.412.2-.267.851.092,1.621s.447.581,1.2.871a5.872,5.872,0,0,1,1.7,1.08c.182.19.289.252.6-.5s-.157-.624-1-1.621S218.143,70.3,217.068,70.816Zm5.156,6.525a2.631,2.631,0,0,0-2.232.559c-.424.21.222.686.514,1.576s.045,1.19,1.741,1.315,2.21-.19,2.342-1.27S223.3,77.634,222.224,77.342Zm6.585,1.953c-1.05-.771-1.564-1.394-2.634-.955s-.18.973-.18,1.267,1.295-.04,1.32.666.419,1-1.14,1.08-1.991.02-2.589.476,1.162-.062,1.7.646,1.452.788,2.943.561,3.527-.561,3.527-.561a11.842,11.842,0,0,0-1.539,1.766c-.444.726-.624,1.766.155,2.282s.873-.536,3.038-.579,2.811-1.162,2.811-1.162a2.043,2.043,0,0,1-.424-1.561,4.374,4.374,0,0,0-.022-1.33,9,9,0,0,1,1.07.873s-.155-.644-.469-1.808-.065-1.25-.4-2.826-.269-1.913-1.9-1.871-2.746.606-4.088.606-1.918.247-.933.746,1.118,1.1,1.584,1.661a3.663,3.663,0,0,1,.4,1.851C231.062,81.061,228.809,79.295,228.809,79.295Zm-8.147,5.922c-.027.007-.047.022-.07.03a1.941,1.941,0,0,0-.958,1.614c-.045.541.9.227,2.39-.292S222.785,84.536,220.663,85.217Zm21.068-2.824a10.939,10.939,0,0,0-2.946,2.39c-.713.808-.09.91,1.764,1.848s3.836,1.12,4.7.142S244.853,80.684,241.73,82.393Zm8.611-7.254c-2.375.237-1.639.589-4.385-.312a25.806,25.806,0,0,0-7.129-1c-.938,0-.5.439.471,2.03s1.237,2.15,3.248,1.649,3.647-.838,5.121,1.277,2.242,2.779,1.035,3.555-.639,2.025.067,3.649,2.307,1.554,4.555,1.554,16.433-.215,18.646-.619,4.181-2.277,5.356-3.118,1.808-2.153.2-3.12a12.4,12.4,0,0,0-5.692-1.868c-1.808,0-3.345.935-6.091,1.215s-2.14,1.594-4.617,1.654-1.275,1.155-4.323-.092-5.288-2.809-3.844-3.026,2.609-.4,1.806-1.09S252.554,74.92,250.341,75.139Zm-28.384-11.6c1.472.5,1.843.873.2,1.307s-2.913,1.589-1.27,1.372a17.411,17.411,0,0,1,5.153.5c2.113.339,1.938.122,2.879,1.31s1.941,1.182,3.385.841,1.636-.439.7-1.469-1.911-2.923-3.183-3.674-2.342-1.811-3.617-1.681-1.571.152-2.679-1.342-1.971-.783-3.582-.377-2.118,1.554-2.744,2.06C215.933,63.421,220.485,63.044,221.957,63.543Zm19.284-15.276c-1.741,2.183-3.148,4.021-1.177,4.238s2.846-.155,2.981.471-.334,1.058-3.28,1.058-2.04.656-.4,2.587,1.811,1.277,4.318,1.215,3.347-.968,5.425-.432,2.711,1.06.836,1.619-6.3,1.619-5.288,2.554,4.116,3.178,5.523,3.4,1.706-.935,4.754-.594,2.31.656,2.642-.187,2.011-2.991,2.345-3.772,1.175-1.28,2.846-1.651,2.21-.905.636-1.467-3.348-.811-3.18-1.245,1.14-1.716.467-2.372-1.736-.624-2.612-.965-1.838-1.931-2.946-2.617-2.073-.751-3.415-1.779-3.477-3.537-6.156-3.4C243.753,45.024,242.977,46.084,241.241,48.267ZM237.822,66.5c-.669.342-2.34.4-1.1,1.432s.9,1.063,2.472.471a12.579,12.579,0,0,0,4.056-2.5c.2-.437-1.576-1.277-2.781-1.651s-2.04-1.339-4.555-2.028C232.264,61.235,238.493,66.157,237.822,66.5Zm81.9-32.427c-2.766-.751-12.674-2.664-15.887-1.916s-3.038-1.661-7.5-1.078-11.335.247-13.477.579,1.07,1.247,2.233,2-5.533-.831-10.626.584-8.391,2.16-2.941,4.238,6.159,2.662,6.159,2.662a75.96,75.96,0,0,1-9.91-2.412c-2.946-1.162-1.337-1.08-6.875.5s-10.888,2.412-10.621,4.073,4.465,3.909,7.229,4.487,8.484-.831,8.93-1-2.233,2.245-2.233,2.245,2.854-.581,6.069-1.414,5.712-1.744,8.75-2.826a26.747,26.747,0,0,0,3.569-1.412s-5.266,4.076-8.928,5.485a40.013,40.013,0,0,1-10.621,2.415c-2.233.082-1.878,1.494.357,2.659s3.926,3.657,5.089,4.487a3.516,3.516,0,0,1,1.34,2.163,6.189,6.189,0,0,0-7.321,0c-3.841,2.739-3.305,4.156-2.322,4.487s4.373.666,5,1.828,5.089-1.08,5.089-1.08-2.227,2.826-4.375,2.826-2.05-1.828-5.176-1.5-2.946,1.083-1.6,2.16,2.41,1.417.087,2.5-3.392,1.412-3.482,2.744,3.036,1.33,5,1.33,3.836-.172,7.411-.249,3.123-1.25,4.463-1.25,2.677.417,2.143,1.746.531.5,4.465-.913,2.135-3.579,1.873-4.323-1.7-1-2.589-1.412,2.679-4.078,2.14-5.321,4.375-.252,6.605-3.16,1.429-5.071-.177-5.567,2.948-.165,4.373-1,4.557-1.823,5.8-3.4,1.7-2.163-1.337-1.826,4.368-1.332,7.942-3.662,7.678-5.069,8.568-5.735,1.7-.334-2.5-.082-9.194-.332-6.426-.664,10.98-1.332,13.123-2.908A25.446,25.446,0,0,1,319.723,34.076ZM269.738,91.764c-4.467-.419-10.978-1.5-12.32,2.325a119.118,119.118,0,0,0-3.569,13.886c-.177,1.576,5.355,3.9,9.194,4.068s10.09.417,8.838-.5-.18-1.412,3.39-1.247,3.931-.748,3.931-1.5.624.913,3.123,2.242,4.645,5.076,6.875,7.236,7.229,5.069,6.248,6.732,1.068,7.483-6.61,8.813-8.122.412-8.03,2.16.441,2.494,3.48,2.494,7.231-2.494,8.658-.666a9.179,9.179,0,0,0,4.645,2.911c1.247.414-1.519,1.16-2.235,1.412s1.519.5,5.894,2.577,9.638,2.327,7.049.833-3.836-4.238-5-5.156-.087-.167,1.966.334a12.944,12.944,0,0,1,4.819,2.908c.891.746,1.34-.247,1.963-3.16s-.264-2.908-3.749-5.233-4.552-4.156-4.911-5.822,1.789-2,2.681-3.163,3.395,2.083,5.089,3.991,3.12,5.241,4.462,2.829a30.35,30.35,0,0,0,2.584-9.062c0-1.245-1.335.082-7.047-2.741s-8.661-3.906-9.194-3.906,1.517-1.08,4.018-2.327,3.567-1.078-1.789-6.154-6.875-6.151-10.354-6.483-4.462-3.991-6.962-5.236-8.3,1.494-10,1.913-1.16,1.078-3.3-2S269.738,91.764,269.738,91.764Zm4.016,0c-2.22.264,1.337,4.32,4.193,4.49s5.268-1.247,5.892-1.414S277.236,91.345,273.754,91.764Zm-10.02,41.227a21.263,21.263,0,0,0-1.407,5.116,9.186,9.186,0,0,1-.736,2.991c-.332,1.058,1.073-.187,2.01,1.369s.529,2,2.208.19a5.234,5.234,0,0,1,5.889-1.684c2.345.748,4.153,1.06,3.35-.372s-1.876-1.312-3.482-3.243a9.411,9.411,0,0,0-4.819-3.18C264.736,133.431,264.534,131.061,263.733,132.992Zm16.845,145.66c-.691-1.442-1.731-3.779-6.071-4.585s-5.807.806-7.411,1.347,1.5.808,3.562,0,3.639-.172,3.921.2-.7.6-1.048.2-.422.968,1.913,1.811,2.9,1.245,3.138,2.245a6.3,6.3,0,0,0,.743,2.372c.534.836.733,1.187-.247,1.554s-.636.317.087.766a9.576,9.576,0,0,0,4.221,1.359c2.038.172,2.714.554,1.295-1.315S280.8,279.106,280.578,278.652Zm6.483,9.129a3.264,3.264,0,0,1,.726,3.086c-.08.666-1.3.15-3.542-.441s-1.9-.3.05.748,3.208.793,3.123,2.2,1.788.13,2.617-.683.771-.09,4.233.429,4.173,1.15,3.622-.369,1.586-1.394-1.489-2.844S285.779,286.464,287.061,287.781Zm-9.855.866c-1.3-1.442-2.931-1.651-2.946-.424s.442,1.155,1.641,1.489S278.039,289.567,277.206,288.647Zm25.144,6.256c-1.417-.486-1.706.579-.766,1.469s2.39.579,3.814.511S304.821,295.754,302.349,294.9ZM286.061,120.931c-1.878.791-2.978,1.339-1.339,3.49s2.614,3.492,3.245,1.933S289.241,119.589,286.061,120.931Zm-15.029,23.078c-2.829.454-3.752.539-3.305,2.12s1.207,1.33,3.123.372S274.113,143.511,271.032,144.009Zm5.889,2.41c-.481.147-.624,1.247,0,2.242s1.828-.329,2.367-1.537S278.71,145.878,276.921,146.419ZM246.036,69.694c-2.674.09-6.7,1.038-4.465,1.078a63.556,63.556,0,0,0,7.683.294c3.614-.21,3.966-.459,4.058-2.205S250.947,69.527,246.036,69.694ZM229.3,55.022c-2.731.848-2.055,1.414,1.157,2.826s3.305.748,2.948-1.913S230.907,54.523,229.3,55.022Zm190.787,69.571c-3.382.943-4.515.379-5.156,2.1s-1.966.793-2.731,1.005-1.846,5-2.382,4.285a13.035,13.035,0,0,1-1.509-2.741c-.778-1.646.257-1.354-1.23-3.088s-4.428-1.537-4.637-.828,2.031,1.307,1.272,2.108a39.429,39.429,0,0,1-3.273,2.37c-.688.579,1.324.327,2.589.03s2.133.95,2.649,1.833-.579,1.746-1.127,2.175,1.841.327,2.794.5,1.454.98.8,2.06,2.839.152,4.772.04,2.437,1.325,5.355.409,4.313-.851,6.974-2.819,2.454-1.512,4.221-2.781,1.342-1.661,1.414-3.068,1.165.394.751-1.731-2.592-1.547-4.113-1.711-1.469-1.362-2.235-1.739S423.518,123.635,420.088,124.593ZM646.059,307.719a6.646,6.646,0,0,0-.359,2.2c0,1.125-.132,2.33-.042,3.45s.155,1.913.778,2.163a2.075,2.075,0,0,0,2.078.02c1.028-.476,1.988-1.329,1.474-2.619a35.371,35.371,0,0,0-2.033-4.009C647.4,307.974,646.326,306.766,646.059,307.719Zm-.818-1.542c.11.476.262.377.489.706s.469.042.157-.394-.274-.489-.274-.489-.4-.135-.4.259m96.4,66.264c-.015.05-.072.077-.11.117-1.833,1.856-3.5,1.337-6.648,2.315-3.21,1-8.77,4.238-9.174,5.675s0,1.619-.4,1.429A4.863,4.863,0,0,1,724.209,381a6.8,6.8,0,0,0-.669,3.305c.2,1.557.935,2.492.871,4.487s-.8,3.178-.736,4.55,2.34,3.991,2.946,5.615,1.005,1.185,1.337,4.116,1.876,4.547.334,6.106-2.677,1.247-.8,2.869,3.415,2.681,6.423,1.621,2.215-2,4.557-2.5,2.811-1,4.817-1.12,3.415.06,4.158-1.369.2-1.372,2.2-2.372,1.808-1.247,3.15-1.494,2.207.688,4.013-.748.469-1.559,4.487-1.559a19.192,19.192,0,0,1,7.164,1.058c1.474.5,3.884,1.808,4.485,2.744s1.407,2.06,1.671,2.06.606.06,1.542-.873a39.84,39.84,0,0,1,3.614-2.806,6.662,6.662,0,0,1-.736,2.744,3.518,3.518,0,0,0-.606,2.183c0,.372,1.542-1.187,1.746-1.247s.4,2.744.6,2.991.806.122,1.407.935a10.3,10.3,0,0,1,2.01,2.993c.6,1.557,3.146,3.118,4.752,3.365a13.353,13.353,0,0,0,4.218-.062c1.2-.185,1.272-1.621,2.542-1.058s-.065,1.744,2.948,1.5a8.056,8.056,0,0,0,5.019-2.06c1.2-.808,1.339,1.125,2.879-1s1.808-1.621,2.075-4.181.2-3.053,1.674-5.485,1.811-1.247,2.816-4.8,2.275-6.924,2.143-9.853.062-1-.606-4.305-.2-2.926-2.342-4.3-2.677-1-3.215-2.933.135-2.494-.871-2.494-1.876.434-2.477-.873-.531-1.806-1.671-3.053-2.208-1-4.285-1.931-1.01-1.187-1.01-2.809.12-3.345-1.534-4.093-.668.414-.668-2.247,0-2.282-1.34-2.739-1.786-.417-2.634-2.04-1.963-4.28-2.365-5.355-.891.122-1.429.91a8.366,8.366,0,0,0-1.295,4.156c0,1.619.714,2.539.714,4.7s-1.514,4.32-2.455,5.568-1.694.125-2.5-.21-.98-1.539-2.674-2.37-4.819-1.577-6.248-2.866-.449-1.33,0-2.659a6.76,6.76,0,0,1,2.143-3.285c1.07-.873.758-1.207-.581-1.956s-3.213-.788-5.49-.788-3.614-.165-3.482,1.125,1.472,1.783-.441,1.412-3.574-.541-4.423.372-1.03,1.459-1.517,3.41.135,2.075-.668,2.075-3.974-1.537-5.046-1.988-1.646-.419-2.9.746a68.5,68.5,0,0,1-7.186,5.857C743.154,367.617,743.243,367.41,741.615,372.524Zm-59.559-56.191c-.948-.13-1.474-.377-.314,1.117a17.684,17.684,0,0,0,2.589,2.829c1.115,1.04,1.519-.751,2.367,1.245s.534,2.038,1.382,2.784,1.564.96,1.784,1.709a5.215,5.215,0,0,0,1.474,2.744c.983.828.983.706,1.562,2.325s1.474,2.784,1.921,4.156,2.991,2.659,4.283,4.323,3.485,4.073,3.841,3.407,1.292,0,1.963-.247.891-1.2,1.339-3.535-.4-3.407-1.03-3.949-1.784-.664-2.093-1.162-.848-2.2-1.606-2.744-.943.04-.943-1.29.9-1.2-.22-1.951a5.931,5.931,0,0,1-1.611-1.664c-.352-.374-2.764-.955-3.39-1.621s-3.255-1.871-4.507-3.121-2.634-2.242-3.033-3.155S686.159,316.869,682.056,316.332ZM708.03,343.14c-1.07,0-1.6-.624-2.32.664s-.624,1.29.491,1.29.893.584.846.748-.534-.127,1.741.788a5.6,5.6,0,0,0,4.51.207c.624-.334.848.833,3.974,1.33s4.774-.289,6.78.21,1.522-.249.092-1.327-1.295-.5-2.726-1.539-3.435-1.08-4.37-1.25.8,1-2.05.621-1.831.254-3.305-.7-1.474-1.12-2.459-1.287S708.03,343.14,708.03,343.14Zm22.674,4.57c-.8.252-2.455.711-1.7,1.04s.175.541,2.544.332,4.42-.5,4.729-1-.4-.165-1.387-.459-.89.21-2.23.377A2.878,2.878,0,0,1,730.7,347.709Zm8.3-.167c-1.584.195-1.387.541-.137.918a6.457,6.457,0,0,0,3.348.289,15.238,15.238,0,0,1,2.814-.788c1.739-.292,2.32-.252,3.7-.419l1.389-.165s-.135-.289-1.075-.247-1.6.082-2.542.082-2.542.831-3.215.788-1.958-.456-2.275-.249S740.707,347.335,739.008,347.542Zm8.925,2.035a.385.385,0,0,0-.057.042c-1.105.756-1.15.965-1.05,1.566a1.125,1.125,0,0,1-.122.871,4.742,4.742,0,0,0,2.863-1.324,4.69,4.69,0,0,1,2.559-1.684,9.707,9.707,0,0,0,2.714-1.836,8,8,0,0,1-2.108.122,3.975,3.975,0,0,0-2.547.873C749.836,348.505,750.532,348.585,747.933,349.578Zm-9.329.659c-1.162-.833-2.29-.716-2.375-.2s-1.008.484.634,1.093,3.2,1.4,3.081.574S739.108,350.59,738.6,350.236Zm-10.666-34.655c-.671.955.624.706-.359,1.539s-1.736.456-2.716,1.7a14.05,14.05,0,0,1-3.083,2.579c-.624.459-2.637.993-3.527,2.2a1.191,1.191,0,0,0,.314,1.871s-.539.247-1.966-.292-1.517-1.2-1.517-1.2-1.028-.04-1.6,1.5-.9,1.7.127,2.619-.711.953-.489,1.576.227,1.791.848,1.913.758-.581,1.522.374.132,3.657,1.112,3.782,1.694-.289,2.542.082a3.063,3.063,0,0,0,2.592.334,3.828,3.828,0,0,1,2.9.332,9.551,9.551,0,0,0,3.7.958c1.03-.082,1.2.167,1.384-1.29s.047-2.826,1.295-3.949,1.294-1.122,1.384-2.163a5.832,5.832,0,0,1,.851-3.2c.753-1.085,1.2.624,1.606-.21s.8-.828.576-1.245-1.382-.419-1.826-1.207.135-1.207-.4-2.826-.846-1-.09-1.913,1.384-1.08,1.472-1.786.4-.751,1.342-1.412-.15-.354-1.04-1.02-2.564-3.158-3.6-3.135C730.724,312.1,728.606,314.624,727.938,315.581Zm131.884,88.239c-.429-.317-.8-.082.185,1.08s1.07.828,1.694.871,1.162,2.33,1.514,2.913a10.2,10.2,0,0,0,1.028,1.287,12.606,12.606,0,0,1,.047,3.617c-.312,1.12-.983,1.619-1.2,2.659s1.025.748,1.831,1.083.669.332.357,1.245-1.25,1.329-1.25,1.5,1.831,1.2,2.769.082a16.723,16.723,0,0,0,2.814-3.989c.4-1.2-.718-.666.576-1.539s1.115-.459,1.786-1.539,1.382-2.2.626-2.784-1.6.706-2.282.955a2.337,2.337,0,0,1-2.14-.167c-.935-.456-1.115-.456-1.469-1.29a4.7,4.7,0,0,0-.806-1.287s-.269,1.412-.935.958-.494-.958-.983-1.749a16.251,16.251,0,0,1-.806-1.619c-.309-.581-.045-1.706-1.6-1.871S860.224,404.11,859.822,403.821Zm.269,15.089a16.956,16.956,0,0,0-2.362,2.617,11.517,11.517,0,0,0-1.651,2.953c-.357.828-1.651,1.826-3.794,2.948s-2.948,1.581-3.662,2.619-3.258,4.28-3.567,4.657,1.2.746,2.766.746,4.016,1.414,5.356-.04,2.677-4.906,3.525-6.151a15.579,15.579,0,0,1,2.991-2.911c1.337-1.2,3.57-3.45,3.57-4.323a8.059,8.059,0,0,0-.579-2.285,1.681,1.681,0,0,1-1.654.831C859.869,420.446,860.091,418.909,860.091,418.909Zm-10.524,15.964c-1.569-.831-1.876.716-2.128,2.3s.676.237,2.04-.476S850.166,435.193,849.568,434.874Zm-53.076-10.9c-1.766-.589-1.472,1.083-1.2,2.327a9.256,9.256,0,0,0,1.3,3.283c.668,1.043,3.165,1.412,4.153.96s1.691-2,2.674-3.452a6.287,6.287,0,0,0,1.252-3.989c-.18-.876-1.429.788-2.235,1.162s-1.876,1.33-3.39.915A13.04,13.04,0,0,1,796.492,423.978Zm-22.225-89.237c-1.427.334-2.143-.915-3.305-3.325s-2.05-2.741-5-1.664-2.5.833-.536,1.581a26.57,26.57,0,0,0,2.5,1c.267,0,3.125.414,2.5.831s-3.3.828-1.609,2,.983.332,5.448,2.577,5.178.584,6.608,3.492,1.424,2.41.267,3.16-2.679,1.494-2.053,1.579a41.108,41.108,0,0,0,4.819.5c3.036.165.18,1.911,3.57,1.911s4.285-1.08,5.625-2.661,1.606-.748,4.462-.082,3.839,3.158,7.411,4.156,5.086,2.33,2.854.252-3.033-3.574-6.071-5.987-3.21-2.662-4.1-4.49-4.016-3.991-7.5-5.4-5.475-1.611-9.554-2.744C776.407,330.254,775.7,334.409,774.266,334.741Zm-23.482-8.311c-1.337.933-1.5.362-2.5-.254s-.721,1.292-2.946.254-3.056-1.554-5.448.21-.891,2.484-.948,3.727-2,4.762-2.726,6.056-.716,1.761-.165,2.589,1.334.516,1.669.93,0,3.677-.392,4.762.948,1.3,2.337.985.167-.414.167-1.552.666-1.659.666-3.784v-3.1s.392-.21.89.514,1.225,2.746,1.833,3.784,1.222,1.808,2.17,1.083,1.831-1.551,1.831-1.551-1.831-.569-1.831-1.192.778-1.135-.5-3.208-1.943-2.175-.329-2.277,1.556-1.711,2.5-2.175a4.75,4.75,0,0,1,2.28-.309,2.487,2.487,0,0,0-2.39-.571A18.193,18.193,0,0,0,743,332.643c-1.222.671-2.282,1.09-2.5-.155a8.538,8.538,0,0,1-.222-3.265c.17-1.706,2.11-.412,3.56-.823s1.447-.312,4.615-.107,3.39-.519,4.335-1.811a13.191,13.191,0,0,0,1.5-2.8S752.116,325.5,750.784,326.43Zm7.5-4.53c.284-.516-2.32,1.783-2.809,2.242s0,1.122.352,1.791.272,2.948.4,3.445,1.474.958,1.474.958a4.819,4.819,0,0,1,.444-2.242c.491-.706,0-1.581,0-2.866S757.442,323.436,758.287,321.9Zm-5.131,13.644c-2.05-.781-2.814-.267-2.814.806s-.227,1.6,1.953,1.6S756.948,336.991,753.156,335.544Zm4.078-.693c-.5.16-1.033,1.766-.743,2.726s.629.322,1.779.107.973-1.12,2.41-1.23a15.429,15.429,0,0,1,4.422,1.015s.634-.746-1.661-2.19S760.1,333.94,757.235,334.851ZM716.4,281.979s-2.053.057-2.367.057-1.028.8-1.539,1.108-.514.743-.155,1.554.958.853,1.961,1.125.649-.437,1.387-.708a1.922,1.922,0,0,0,1.1-1.537,2.328,2.328,0,0,1,.823-1.083c.177-.2-.579-.913-.579-.978A4.372,4.372,0,0,0,716.4,281.979Zm24.168,2.886c-.806-.6-1.25,1.5-1.474,2.577s-.491,1.788-.087,2.577.222,1.043.222,1.043l-1.162-.878a7.45,7.45,0,0,0-.312,1.873c0,.873-.359,1.247.983,1.871s1.788.289,1.961,1.247.18,1.369,1.075,1.536a3.6,3.6,0,0,1,2.275,1.125c.357.581.177-1.542.8-1.414a3.6,3.6,0,0,1,1.786,1.621,1.541,1.541,0,0,0,1.112.746s-1.023-1.7-.576-1.911.576-.372-.584-1.083a6.192,6.192,0,0,0-2.986-.664c-.893-.125-.893.624-1.564-1.122a5.127,5.127,0,0,1-.132-3.2c0-.369.489.584,1.028-.624a6.345,6.345,0,0,0,.576-3.323c-.087-1.162.8-1.621.132-1.661S741.013,285.2,740.569,284.866ZM751.188,307.2c.137.841-.8-.237-1.152.247s-.536.389-1.1.624a11.957,11.957,0,0,0-1.938,1.512s-.018-.823.015-1.01-.419-1.155-.836-.5a3.835,3.835,0,0,1-1.761,1.542,2.7,2.7,0,0,0-1.636,2c-.12.843.569.813.569.813a5.365,5.365,0,0,0,.988-1.247c.619-.965.733-.938,1.856-1.078s1.035-.125,1.392.481.082,1.532.115,2.2-.032,1.477,1.118,1.868.606.032,1.661-.062,1.038-.065.886-.594a9.188,9.188,0,0,1-.539-1.619c-.065-.624.609-.888.823-1.013s.354.624.671,1.4.451.746.586.155a8.965,8.965,0,0,0,.369-2.741,10.339,10.339,0,0,1-.2-1.948,2.44,2.44,0,0,0-.821-1.591c-.3-.219-1.339-1.135-1.339-1.135S751.058,306.36,751.188,307.2Zm-5.136-5.089s.025-.531-.943-1.482-1-1.227-2.477-1.484-2.953.13-2.33,1.716.806,1.818,2.058,2.01a2.562,2.562,0,0,0,2.005-.489s.095.254-1.085,1-1.315,2.158-.392,2.709.9,1.394,1.434.97.92-1.881,2.005-2.9,1.155-1.162,1.3-2.242a8.572,8.572,0,0,0,.023-1.946Zm2.529-3.048c-.135.107-.906-.08-.1.7s1.539.95,1.439,1.524-.032.688-.484.624-.589-.17-.788-.185-.229.374-.1.733.1-.047.484.559a2.957,2.957,0,0,1,.4,1.514c.117.7.419.359.419.359s-.1-1.684-.05-2.025-.137-1.172.432-.908.419,1.267.753.332a4.266,4.266,0,0,0,.02-2.512c-.167-.751-.756-.781-1.442-.781A5.28,5.28,0,0,0,748.581,299.066Zm-11.547,2.884c-.332.082-.539.4-.738,1.544a4.218,4.218,0,0,1-1.522,2.4,22.6,22.6,0,0,0-2.647,2.821c-.1.357-.12.14,1.272-.519s2.492-1.524,2.654-2.412-.162-.342,1.063-.918.6-.766.651-1.671S737.646,301.792,737.035,301.95Zm73.9,34.036c-.15,1.157.332,1.5-.738,2.35a6.622,6.622,0,0,1-3.417,1.043c-1.135.185-.307-.19-1.716-.23s-1.766.062-1.115.768.489,1.392,2.564,1.31,3.794-1.2,5.136-1.619,1.227-1.5,1.337-2S811.086,334.741,810.934,335.986Zm5.8,2.5c.574.816.354.688,1.09,1.766a4.594,4.594,0,0,0,2.771,1.559c.868.289,0-.312-.646-1.182A10.117,10.117,0,0,0,818.3,338.4C817.335,337.53,815.728,337.051,816.734,338.483Zm-75.383-69.89c-2.861,1.818-4.151,1.684-3.011,3.991s1.851,3.285,2.008,3.722.736-.292,1.512-2.12.873-4.221,1.187-4.944S742.33,267.968,741.35,268.592Zm48.985-89.671c.314,1.207.624,3.076-.09,3.283s-1.207,1.539-1.382,2.913-.536,3.113.22,4.2.225,1.16.225,2.08.267,3.24-.18,4.61a5.565,5.565,0,0,0-.534,3.16,27.125,27.125,0,0,1,0,3.824c0,2.08-.132,3.739-.042,4.57s.531-.412.843-.7a1.839,1.839,0,0,1,2.188.249l.673.706s1.07.456-.4-2.7-1.741-2.492-1.339-5.363.624-2.908,2.138-3.2,2.32,1.791,2.5,2-.135-.706-.671-2.325-1.025-2.16-1.2-4.2-.806-3.744-1.609-4.325-.4-1.539-.042-2.327a6.533,6.533,0,0,0,.314-3.367,35.55,35.55,0,0,0-.8-4.031c-.227-.748-1.117.454-1.117.454ZM789,210.762a3.992,3.992,0,0,1-.444,2.781c-.629,1.038-.18,1.29-.536,2.741s-2.1,0-2.1.294a3.027,3.027,0,0,1-.716,1.7c-.444.374-1.966.461-1.519,1.913a20.437,20.437,0,0,0,1.255,2.991,7.163,7.163,0,0,1,1.155-.913c.272-.082.983-.287.983-.287s-.132-.419-1.115-.876a1.342,1.342,0,0,1-.758-1.7c.135-.294,1.382.082,2.188,0s1.474-.5,2.457.289a6.531,6.531,0,0,0,2.41,1.083,7.356,7.356,0,0,1,.621-2c.449-.831,1.744-.459,3.038-.831s2.275-.581,1.831-1.122-.4-1.746-.676-2.662-1.115-.042-1.783.292a2.508,2.508,0,0,1-2.41-.5A17.935,17.935,0,0,1,789.8,210.3S788.9,209.847,789,210.762Zm-4,13.629a2.926,2.926,0,0,0-.868,2.524c.1,1.217,1.137-.092-.2,3.647s-2.01,4.582-3.315,5.553a3.193,3.193,0,0,1-3.011.713c-.5-.247.137-1.09.5-1.342s-1.142-.342-1.776-.247-.035.813-.1,1.4-1.3,2.183-1.167,2.9.132.935-.671,1.185-1.337-.6-1.572-.718a18.939,18.939,0,0,0-3.016.434,2.981,2.981,0,0,0-2.642,1.906c-.671,1.152-2.247,1.339-3.382,1.773s-.7,2.06-1.943,2.619-1.237,1.589-1.339,2.432.768.249.906.187.135-1.185.905-1.058.868.152.466,1.028-.634,1.31-1.035,2.055.135,1.093.733,1.843,1.175-.222,2.442-1.559,1.377-1.656,1.275-3.183-.606-1.559-1.539-1.993-1.142,0-.1-1.187,1.507-.03,2.21-.561,2.412-.5,4.051-.9,3.215-.933,3.28-.407.571,2.307.634,2.681,1.145-.529,2.242-.935.072-.589-.032-1.307a1.227,1.227,0,0,1,.5-1.125s.571,1.187,2.342.344,1.911-1.185,2.38-1.063.771.6,1.5.127.875-.032.741.344,2.143-.718,2.642-1.06.237-.032.032-1.342-.836-1.4-.464-3.083a14.9,14.9,0,0,0,.367-2.9c.1-1.058.5-1.212.768-1.277s.272-1.464.836-2.21.436-1.09.436-2.806-.938-1.4-1-2.617a9.156,9.156,0,0,1,.229-2.4s-1.908.718-2.105,1.152l-.2.437S785.636,224.08,785,224.391Zm-12.492,18.733a34.755,34.755,0,0,0-4.545.915c-1.175.377-1.424.893-1.242,2.063a24.225,24.225,0,0,0,.8,2.956c.162.609.8,0,1.908-.586s1.033-2.3,2.088-2.3.666,1.22,2.088-.491.344-1.856.389-2.721S772.505,243.124,772.505,243.124ZM897.587,150.8c-2.118-.412-2.729-.871-2.923-.1s-.427,1.02.913,1.5,2.008-.352,3.26.584a2.688,2.688,0,0,0,2.564.768,2.071,2.071,0,0,0,1.339-.6A30.23,30.23,0,0,0,897.587,150.8Zm-24.176-33.3c-.778.217-1.409-.529-1.207,1.372s.634,2.12,3.076,1.774a30.585,30.585,0,0,1,3.954-.339c3.345-.249,4.046-.718,4.046-.718a5.885,5.885,0,0,0-1.6-1.808c-1.14-.871-2.647.6-5.226.157A28.263,28.263,0,0,0,873.412,117.5ZM797.991,89.415c.032.731,3.345,2.771,4.55,3.367s2.14.342,4.69.062,2.744-1.369,3.043-1.993-1.2-.407-2.908-.748-3.113.309-3.717,0,.9-.624-.6-1.185-1.876.185-2.21-.062-.4-.783-1.137-.843S797.956,88.731,797.991,89.415Zm-13.126,4.27c-1.152.461-1.07.873.235,1.963s.873.843.3,1.621,0-.032,1.876.811,2.644,2.372,3.816,2.714a2.776,2.776,0,0,0,1.975-.095,10.754,10.754,0,0,0-1.507-2.744c-1.105-1.494-3.485-1.931-3.921-3.24S786.506,93.029,784.865,93.685Zm11.951-6.106s-1.7-1.03-4.285-2.652-3.547-2.058-4.418-2.183-.733.908-1.073,1.714-.566.654-1.911,0a21.1,21.1,0,0,0-4.046-1.966c-1.374-.309-2.208.811-3.781,2.372s-.669,2,1.24,4.3,2.744,2.432,4.28,1.527,1.105-1.494,2.213-1.06,4.919-.434,5.056-.434-.237,2.118,1.439,1.559,3.21-.843,3.981-1.684S796.816,87.579,796.816,87.579ZM680.893,43.054c-.489.412-3.348.165-4.822,2.489s-2.5.708-3.258,2.123a29.541,29.541,0,0,0-1.384,3.115s1.342,1.581,2.771,1.457a6.334,6.334,0,0,1,5.308,2.412c1.384,1.908,2.412,1.908,5.757,2.447s1.828,1,3.575.836,4.146.207,3.614-.668a3.763,3.763,0,0,1-.713-3.116c.219-1.7,1.781-1.621-.047-2.744a3.833,3.833,0,0,0-3.033-.414c.09-.21,1.651-.833,1.028-.876s-3.707-.2-4.063-1.951.846-1.876,1.469-2,.449-.329-1.34-1.619a48.813,48.813,0,0,0-4.191-2.619C680.449,42.51,681.385,42.635,680.893,43.054Zm16.782,12.589c-1.295.252-2.367,1.539-3.123,2.662a20.137,20.137,0,0,1-3.215,3.572c-.938.748-.671.96.848,1.5s4.2-.958,4.954-1,1.339,1.125,3.749.831,6.069-.748,4.285-2.038a36.574,36.574,0,0,1-3.125-2.242,8.642,8.642,0,0,0-4.462-1.7s4.063-1.372,3.083-1.454S697.676,55.643,697.676,55.643ZM594.487,35.154c-2.337.838-1.519,1.247-3.036,2.454s-.5,1.537,2.769.746a20.392,20.392,0,0,0,5.533-2.078C601.848,35.319,597.969,33.9,594.487,35.154Zm5.176,5.862c-2.193.97-1.609,2-1.025,2.826s2.183-.5,2.629.417.581.536,2.637-.836,1.295-.953.494-2.407S603.414,39.352,599.663,41.016Zm-12.2-.6c-1.4.668-1.4.591-.07,1.215s4.587,1.122,6.261.03,1.544-.871-.569-1.182S589.037,39.661,587.468,40.412Zm-20.689,2.522a32.078,32.078,0,0,1,5.929-.09c1.736.187,1.1,1.684-2.115,2.028s.3.841,2.579.746.8-1.966,2.714-2.619,3.111-.249,5.385-1.058-1.3-1.591-3.949-1.529a52.468,52.468,0,0,1-5.757.062c-2.242-.157-4.053.853-6.361,1.247C560.451,42.532,564.6,43.124,566.779,42.934Zm17.069.6c-1.913,0-6.525,1.058-2.644,1.432s3.585.624,5.188.032S585.861,43.53,583.848,43.53Zm13.53.811c-2.726-.9-2.784-.531-4.892-.439s-2.943,1.4-1.569,1.966a5.535,5.535,0,0,0,3.445.157c1.135-.187,1.07-.529.334-.811S598.982,44.872,597.378,44.341Zm11.447-3.367c-2.09.259-2.21.626-2.412,1.307s.3.531,2.512.252a11.419,11.419,0,0,0,4.685-1.372c1.439-.781-.3-2.681-.3-3.026s-2.04,1.033-2.612,1.527S611.3,40.662,608.825,40.973ZM444.89,160.547c-1.053,2.906-2.789,4.25-.733,3.442s4.106-3.308,4-1.162-2.108,1.833-1.477,3.936.16,1.923,3.582,2.684.629.494,1.474,2.507,1.419,2.637.524,3.22-3.527-1.833-3.682-.806.364,1.788,1,3.22-.422,2.235-2.42,3.175-.264,1.522,1.262,1.432,5.368-.806,4.737.536-2.472-.225-3.786,2.013-6.166,4.161-3.637,4.026,2.16-.806,9.691-1.876,2.312-.092,7.261-1.614,3.37-1.926.634-1.474,1.793-2.689,1.16-5.59-2.42-.135-3.582-1.971-1-2.37,1.212-1.7,2-.446-2.267-3.173-1.629-2.2-3.577-4.475S451,164.885,451,164.885a6.7,6.7,0,0,0,2.26-2.5c.843-1.654,1-1.522,1.9-3.532s-.9-1.833-3.155-1.344-3.006.718-2.527-.177a9.3,9.3,0,0,1,1.841-2.372c1.055-1.12,1.26-1.7-.686-1.252a14.312,14.312,0,0,0-3.894,1.162C444.209,156.03,445.945,157.639,444.89,160.547Zm-5.318,6.842c-3.44,1.357-2.472,2.24-1.891,2.729s1.629-.447-1.581,1.389-3.265,3.844-1.581,4.248,1.477-.985-.312,2.372-3,5.635.634,4.784,4.63-2.729,6.366-2.951,2.055-1.611,2.055-3.714-1.157-2.148.212-3.891,1.472-3.579-1.217-4.428S441.732,166.539,439.572,167.389Zm43.243,46.945c-.185.471.227,1.746-1.162,2.617s.671,1.666,1.115,2.5,1.028-2.826.893-4.575S483.393,212.837,482.815,214.334Zm-.669,6.9c-2.27,1.075-2.407,1.868-2.681,3.574s1.833.332,1.295,1.826-.04,2.287,2.322.878,1.028-2.7,1.384-4.492S485.137,219.822,482.146,221.233ZM517.135,239.6c-2-.195-2.879,1.06.536,1.437s4.954.434,6.229.122.2-.062-1.479-1.182S519.68,239.852,517.135,239.6Zm19.012,1.06c-2.751-.594-2.005,2.744.806,2.247s1.739.185,3.013-1.871S539.029,241.286,536.148,240.662ZM467.771,225.18c-2.232.287-2.407,1.043-.668,1.5s1.517-.082,2.5-.793S468.759,225.057,467.771,225.18ZM332.557,184.491a19.107,19.107,0,0,0-4.889,6.171c-1.941,3.49-1.736,3.12-3.614,5.051s-.935,1.494,4.889,2.619,5.353,2,6.695,1.621,1.606.743,1.606,1.933,1.27.494,1.873-1.372-.6-5.238-1.806-7.169-1.477-1.936-3.347-1.437-1.275-.434-1.941-1.931-1.746-.312-.135-2.557S333.9,183.433,332.557,184.491ZM154.364,180.5c0,1.853,1.958,5.026,3.435,6.069s1.162.459.491-1.749-.135-2.2-.449-3.614S154.364,179.836,154.364,180.5Zm9.773,10.142a17.279,17.279,0,0,0,3.612,3.45,12.7,12.7,0,0,0,4.732,2.16c2.143.624,3.078-.21,1.7-1.454s-.224-1.125-2.724-1.709-3.031-.369-4.285-1.162S163.286,189.769,164.137,190.645Zm-54.42-20.679c-1.609-.367-2.242-.436-3.35.434s-1.4,1.621-.8,2.592.232.434,1.636-.531.743-1.093,2.514-1.529,1.407-1.03,1.407-1.03A1.943,1.943,0,0,1,109.716,169.966Zm-.569-2.15c-1.083.651-1.442,1.185-.234.933s1.035-.933,1.806-.778,1.04-.155,1.04-.155A3.107,3.107,0,0,0,109.148,167.816Zm-30.9-4.959c-1.472.718-2.866-.125-1.956.422a5.572,5.572,0,0,0,3.111.95c.97-.11,1.609-.125,1.257-.591a1.515,1.515,0,0,1-.469-1.075C80.158,161.907,79.724,162.141,78.249,162.857ZM572.349,366c-1.7,3.744-5.273,1.913-8.127,4.657s-2.41,1.913-.267,5.737-1.781,3.407-2.771,7.895,1.162,3.659,2.322,7.483,1.7,2.659,3.841,2.16a12.513,12.513,0,0,0,3.659-1.5,53.59,53.59,0,0,1,1.783-8.229c1.429-4.9,2.41-8.478,2.677-11.719s.536-5.57,1.255-4.575.8,1,.8-.581-.856-6.024-2.23-7.064C572.878,358.433,574.04,362.259,572.349,366Zm2.5-255.7c-2.34.534-3.45,1.966-1.746,2.524s1.539.254,4.353-.748S577.156,109.769,574.851,110.3Zm43.732-42.477c-.8-1.247-1.512.417-9.723,3.991s-8.127.5-15.8,6.565-5.982,5.318-6.428,8.98-2.232,2.075-2.946,5.4S579.044,96.254,581,99s4.55,4.32,8.656,5.485,5.268-.082,4.38-.5-4.019-5.323-3.395-10.891,2.679-4.739,4.465-6.817,6.426-7.481,9.464-9.312c2.948-1.779,10.8-4.263,14.757-5.622.112-.04.254-.032.327-.112C622.781,67.741,619.391,69.07,618.583,67.823ZM596.45,105.187c-.97.14-1.427.17.359,1.913s3.347,3.076,2.764.748S597.343,105.064,596.45,105.187Zm29.322-16.914c-1.3-.609-2.005-1.247-2.32-.249s1.474,2.327,3.215,2.659S627.021,88.856,625.772,88.272Zm-307.3,104.615a14.015,14.015,0,0,0-5.218-1.786c-1.292,0,.267,1.367,2.317,2.492S319.636,193.471,318.473,192.887Zm-4.727,8.356c.1-1.649-1.1,1.891.377,2.682s2.235.993,3.173.037.172-.354-1.12-.579S313.657,202.615,313.746,201.243Zm584.8-57.276a10.046,10.046,0,0,1-4.216-.439,6.522,6.522,0,0,1-.871,2.871,1.835,1.835,0,0,0-.2,1.933s-2.407-1.06-3.811-1.559-2.679-.062-3.485-2.185-3.213-1.741-5.086-1.741-1.337-2.432-1.337-2.432l-1.14.06c-1.14.062-.938,2.806-2.41,3.677s-6.1,1.437-6.1,1.437,2.948,2.12,3.555,3.866a16.776,16.776,0,0,0,1.739,3.427s-.272.813-3.821.125-3.343.688-7.159,2.242a52.993,52.993,0,0,0-9.239,4.8c-1.075.873-1.14.374-4.485-.434s-4.016.933-4.889,1.372-.534-2-.534-2a6.549,6.549,0,0,0-2.681.746c-15.261,7.753-4.734,7.344-5.218,8.912l-1.609,6.051c-2.242,6.682-3.8,3.183-5.69,8.476-6.027,16.835-9.509-2.594-9.509-7.042,0-2.746-.6-6.3,1.14-7.109,14.979-6.974,1.4-.968,15.465-10.6,4.555-3.115,2.075-4.989,3.078-5.859a6.056,6.056,0,0,1,2.614-1.125l-2.479-.247c-2.477-.247-2.544.312-4.487,2.432s-3.48,2.494-3.078.871.466-3.3-1-2.427-2.08.743-4.822,1.31a13.466,13.466,0,0,0-8.169,4.986c-2.477,3.118-1.07,2.741-.267,3.49s-3.954.559-6.226.377-1.075-.624.267-1.063-2.01-.808-4.956-1.434-1.808.5-3.545,1.185-1.676-.621-2.547-.811-4.752-.434-7.5-.751-2.547.19-3.283,1.125-5.824,5.428-8.034,7.982-4.954,3.118-7.431,5.488-2.878,2.242-.873,2.619,2.28.182,2.612,2.053,1.275,2.494,3.417,2.494,1.539.561,1.941-1.06-.536-3.487,1.272-2.058,3.28,2.5,3.816,4.555-.137,3.552-1.073,6.984-1.272,8.351-2.547,10.846-2.272,4.363-3.682,7.107-8.234,9.663-9.771,10.287-2.542.686-3.283-.686-1.27-1.125-3.013.437a8.616,8.616,0,0,0-3.21,4.986c-.671,2.494-2.145,2.494-3.684,4.363s-1.941,1.437-.806,3.557,3.011,4.365,3.215,6.418-.938,5.051-1.671,6.363-4.218,1.931-4.153,1.307a49.5,49.5,0,0,0,0-5.548c-.135-1.808-1.474-1.808-1.008-2.37s2.415-1.494,1.008-2.809-2.412-.185-3.011-1.741.267-2.809-.065-3.367-1.342-1.182-3.417-1.372-2.547,1.868-3.018.06.207-1.993-.731-2.741-1.744-.249-4.148,1.808-2.884,1.621-4.892,2.492-2.008,1.372-1.539,2.06,2.143,3.677,3.547,3.989,2.412-.624,4.552-.624,2.547.312,2.011,1.12-2.011,1.626-4.617,4.243-1.813,2.12-.94,3.18a18.482,18.482,0,0,1,3.078,4.428c.94,2.053,0,2.8-.132,3.984a5.468,5.468,0,0,0,1.407,4.869c1.741,1.866.534,1.245.334,1.931s-3.148,6.046-4.485,8.73-1.342,2.928-5.69,5.984-6.3,3.365-8.638,3.8a29.177,29.177,0,0,0-5.557,1.624c-1.2.5-.738,1.5-.866,2.12-.142.624-1.275.062-1.078-.876s.07-1.621-.531-1.868a3.8,3.8,0,0,0-4.418.871c-1.943,1.873-4.29,2-5.094,4.368s-.666,1.561.207,2.554,5.086,5.051,6.089,7.229a14.091,14.091,0,0,1,1.275,6.176c.065,2.37-4.824,6.735-6.964,8.167s-2.614,2.806-2.277.559-.935-3.552-2.474-5.236-6.226-3.053-7.1-3.243.334-1.554-.272-1.494-2.006-.312-1.8,1.871-1.4,1.494-1.741,3.679-.738,4.423.668,4.238,1.14,1.933,2.21,4.3.666,1.06,3.347,3.24,2.008,1.808,2.614,3.991.4,3.43,1.741,5.425,1.4,2.432-.806,1.307a12.7,12.7,0,0,1-4.889-3.864c-.87-1.372-1.4-4.867-1.941-6.608s-4.148-3.8-5.353-5.051-.471-2.242.132-5.114-.267-5.612-.471-7.353a50.987,50.987,0,0,0-2.277-8.294c-.669-1.651-.4-1.434-1.439,0s-1.836,2.307-2.844,2.307-2.474-.157-2.342-.813,1.14-3.145.841-4.083-1.242-3.929-2.647-4.989a10.744,10.744,0,0,1-3.919-4.984c-.9-2.462-1.137-1.746-2.879-.469s-5.727,1.434-7.635,1.589-.332,1.093-.8,2.028-2.709,2.148-7.226,6.857-5.2,4.864-6.373,5.363-1.9.342-1.863,2.272a28.707,28.707,0,0,1-.015,4.709,10.031,10.031,0,0,1-1.23,3.532,20.706,20.706,0,0,0-1.177,4.138,5.945,5.945,0,0,1-2.634,3.3c-1.472,1.06-1.472.871-2.143-.686s-4.151-7.543-6.962-13.153-2.143-6.61-2.412-8.234-.322-11.352-.2-12.093c.07-.414-1.359,1.142-1.764,1.931s-.379,1.749-1.983,1.893-1.943.167-3.46-1.352-2.213-2.367-1.948-2.325a8.348,8.348,0,0,0,3.021-.666c1-.5.664-1.04.664-1.04s-1.088.122-2.387.187-.713-.292-2.43-.978-2.1-.746-2.39-1.514-.713-1.851-.96-2.435-.444-.624-.733-1.347-1.115.122-2.968.165-1.432.122-3.662,1-2.567.561-5.089.479-4.283-1.165-5.558-1.6a14.781,14.781,0,0,0-3.347-.521c-1.873-.267-1.472-1.225-1.941-2.015s-1.25-.978-3.707-.788a7.845,7.845,0,0,1-3.924-.312c-1.382-.372-1.5-.873-2.657-2.038s-.781-.247-1.539-.853a6.457,6.457,0,0,1-2.12-3.053c-.6-1.621-.469-1.973-1.162-2.721s-.644-.561-2.814-.561-1.177.142-1.449.289a14.854,14.854,0,0,0-1.539,1.848c-.6.748.489,1.791,1.359,2.809s.112.913,1.5,2.452.913,1.392,1.9,3.532,1.606,2.681,1.828,3.325.426-.249.648-.833a9.484,9.484,0,0,0-.087-2.659,13.268,13.268,0,0,1,.8,2.412c.379,1.537.112,1.557.379,2.537s0,.848,1.674.848a16.615,16.615,0,0,0,4.555-.372c1.853-.434,2.652-2.118,3.522-2.619s.876-2.245,1.452-2.055.027,2.055.559,3.28.669.788,1.966,1.332,1.649.853,2.966,1.349.424.564,1.138,1.871.671.581,1.362,1.04.424.125-.067,1.684a5.243,5.243,0,0,1-1.739,2.846c-1.162,1.27-1.162.873-1.34.833s-.536-.935-.536-.935a9.759,9.759,0,0,0-.846,3.283c-.112,1.766.579,1.12-1.544,1.973s-3.393,1.207-4.213,1.913-.826,1.641-1.295,2.1-1.12.042-2.544.539a4.82,4.82,0,0,0-2.235,1.315c-1.2.91-.135.828-1.671,1.409s-4.328,1.933-5.735,2.08-1.117.519-1.472,1.035-.384.788-2.168,1.06a22.555,22.555,0,0,0-5.111,1.063c-1.1.539-2.7,1.746-3.859,1.517s-.848-.272-1.227-1.31a12.439,12.439,0,0,1-.761-3.492,16.352,16.352,0,0,0-1.766-5.942c-.98-1.644-.958-1.749-2.028-3.475s-1.786-3.178-2.721-3.844-1.4-.706-1.856-1.2-.18-2.205-.644-3.659a11.752,11.752,0,0,0-1.474-3.679,17.9,17.9,0,0,1-2.724-3.467c-.955-1.726-1.023-1.916-2.4-4.572s-1.881-2.993-2.791-4.779-.317-1.437-.649-2.5-1.207,1.724-1.9,2.267-1.048.269-1.606-1.312-1.03-2.968-1.452-2.345-.758,1.245-.182,2.931.853,1.325,1.609,2.926,2.834,5.615,3.679,7.276a11.524,11.524,0,0,1,1.3,3.367,6.806,6.806,0,0,0,2.272,3.861c1.053,1.043.873.5,1.342,2.205a21.16,21.16,0,0,1,.359,4.739c.065,1.038.644,1.579,1.9,2.617s.624.666,1.2,1.766a24.8,24.8,0,0,1,1.5,3.742,3.293,3.293,0,0,0,1.716,2.307,17.027,17.027,0,0,0,2.232.9c.98.352.641.6,1.315,1.454s1.966,1.494,2.771,2.849.264.953.217,2.262-.464.706.115,1.392a17.3,17.3,0,0,0,3.278,2.367c1.7,1.125.339.337,1.853.294s1.833-.439,3.462-.791,3.724-.958,5.732-1.434,3.971-.788,5-1.125,1.05.8.264,2.539-1.157,3.2-1.828,4.615-.918,1.537-1.407,2.681-3.8,5.814-4.482,7.291a18.156,18.156,0,0,1-2.522,3.889c-1.005,1.225-4.153,3.447-5.625,4.632s-1.1,1.185-2.188,2.579-4.418,5.256-5.316,6.628a28.553,28.553,0,0,0-2.07,3.22c-.669,1.352-2.564,3.26-2.679,4.238s-1.18,1.105-.379,1.958,1.227,1,1.519,2.075-.9,2.307-.132,4.28.22.564,1.362,2.14,1.093,2.579,1.2,4.887a25.242,25.242,0,0,1-.132,6.086,28.46,28.46,0,0,1-1.359,3.826c-.511,1.347-3.325,2.267-4.979,2.991s-1.581.436-2.345,1.352-2.943,2.824-3.679,4.238-1.295,1.267-1,2.163.911,2.058,1.671,3.719.224,1.537.045,2.973-.155,1.207-.357,2.948-2.255,1.789-4.6,2.7-1.494.459-1.766,1.724a51.727,51.727,0,0,0-.2,5.256c-.087,1.5-.8.9-2.075,2.744s-1.784,2.726-3.145,4.949a8.161,8.161,0,0,1-2.971,3.305c-1.716,1.389-3.078,1.741-3.834,3.342s-1.631.541-5.313,1.724-1,.606-4.507,1-4.754.669-6.605,1-1.611-.1-2.746-1.347-1.317-1.147-1.826-2.185-.135-1.287-.294-3.16a4.944,4.944,0,0,0-1-3.1,17.847,17.847,0,0,1-1.407-3.2,15.2,15.2,0,0,0-1.946-3.614c-.846-1.247-1.093-.851-1.873-1.661a4.083,4.083,0,0,1-.983-2.662c-.175-1.142-.447-3.844-.823-6.692s-.045-1.33-.494-2.534-.98-2.662-1.741-4.258a22.971,22.971,0,0,0-1.651-3.163,19.164,19.164,0,0,1-1.786-3.425c-.736-1.729-.843-.96-.888-1.624s.377-1.871.424-3.033.424-2.512.708-4.3-.4-1.766.359-2.993a19.636,19.636,0,0,0,2.035-3.742,6.647,6.647,0,0,0,.419-3.218c0-1.766-.18-1.619-.711-3.1s-.736-3.2-1.384-5.567a14.2,14.2,0,0,1-.718-3.2,22.1,22.1,0,0,0-.98-4.218c-.444-1.245-.668-.748-1.649-1.556s-.334-.459-1.182-1.354-.691-1.182-1.519-2.16a12.12,12.12,0,0,1-1.609-2.118c-.666-1.1-.307-.436-.217-2.287s.621-5.383.958-7.421.4-1.931-.379-2.784-1.342-2.078-1.943-2.285-2.053.207-4.173.165-2.03-.516-2.943-1.579-2.125-2.534-2.549-2.928-1.16-.377-4.769-.107-1.432.337-3.844.711-3.348,1.639-5.2,2.285-2.387.479-5.645-.167-4.887.751-6.54,1.457a3.159,3.159,0,0,1-3.659-.459,23.331,23.331,0,0,0-3.772-2.43c-1.848-.915-1.429-1.414-3.255-2.31s-1.232-.935-2.746-2.367-1.629-2.889-2.679-4.385-1.946-3.594-3.35-5.176-2.786-4.759-3.48-5.712-1.222-1.043-1.2-1.5,1.362-3.135,1.921-4.53.713-1.2.958-2.078-.334-3.387-.868-4.759-1.14-4.26-1.561-5.612.22-1.372.736-2.135a45.891,45.891,0,0,0,3.011-4.739c1.272-2.372,1.988-3.535,2.657-4.64s2.208-4.485,3.215-5.4a31.831,31.831,0,0,1,4.66-3.305c1.093-.559,1.988-.871,2.168-1.372s.644-4.612.958-6.336-.107-2.682,1.14-3.348,3.258-1.913,4.308-2.494,1.2-1.454,1.736-2.721.763-2.866,1.566-3.39.581.229,1.629.935a4.324,4.324,0,0,0,1.719.876c.491.125.935-.4,2.165-.417a3.036,3.036,0,0,1,2.1.541c.733.392.334.4,2.435-.893a33.335,33.335,0,0,1,6.515-3.1,28.448,28.448,0,0,1,5.892-1.724c1.27-.147.624.017,2.053.584s1.5.808,1.783.392,1.227-1.581,1.831-1.537,1.295.292,2.834.561a3.874,3.874,0,0,0,2.814-.21c.621-.332,1.427-1,1.581-1a26.082,26.082,0,0,1,2.547.856c1.07.394,1.093.454.871.723a5.539,5.539,0,0,0-1.048,1.724c-.516,1.165-.272.541.219,1.769s.848,1.162.626,2.058-1.227,1.724-1.963,2.6-.556,1.018,1.25,2.038a25.708,25.708,0,0,0,3.415,1.764c2.03.915,2.118.584,4.485,1.29s2.075.788,2.9,1.749.873,1.868,2.3,2.367,2.946.5,3.771,1.018a7.373,7.373,0,0,0,2.614,1.477c1.112.207,1.11.354,1.649-.459s.98-1.537.783-1.953-.806-1.06-.673-1.454a27.483,27.483,0,0,1,1.362-2.45c.294-.479,1.03-.606,2.794-.688s2.986-.332,3.278.706.224.561,1.584,1.125,1.5.559,2.634,1,.559,1.055,1.14,1.015a6.957,6.957,0,0,1,2.587.187,19.3,19.3,0,0,0,5.109,1.332,5.233,5.233,0,0,0,3.193-.688c.314-.142,1.786-1.948,2.659-.7s2.005,1.267,4.191,1.14,2.21-.454,2.7-1.018a15.16,15.16,0,0,0,2.235-4.136c.422-1.454,1.581-4.632,1.893-6.069a8.623,8.623,0,0,0-.132-3.4,4.706,4.706,0,0,1,.427-2.392c.332-.953-1.053-.374-1.611-.187s-.711-.289-1.225-.437-1.05-.272-1.429.688-.2,1.432-2.255,1.33-1.671-.229-2.342-.958a5.807,5.807,0,0,0-2.726-1.185c-.913-.269-1-.23-1.068.354s-.09.975-.756,1.207a5.83,5.83,0,0,1-3.462-.646,8.328,8.328,0,0,1-2.9-2.123c-1.252-1.222-1.07-1.222-1.584-3.113a8.3,8.3,0,0,1-.289-4.073c.22-.561.581-.726-.379-.437s-1.611.454-.963-.975,1.247-1.5,1.923-1.686a17.8,17.8,0,0,1,2.966-.289,7.261,7.261,0,0,0,2.7-.915c.446-.19,1.367-.5.9-.624s-1.876-.272-1.631-.666.4-.374,1.16-.456,1.943-.125,2.948-.185,1.6.125,1.943-.479a4.874,4.874,0,0,1,1.537-1.976c.783-.476,1.631-.229,3.684-.312s1.736.414,2.407.9,1.118.247,1.991.414.332.686,1,.955,1.9.544,3.392,1.02.514.269,2.342.269a12.626,12.626,0,0,0,3.215-.229,6.458,6.458,0,0,0,3.081-1.519c1.025-.723.312-2.307-.065-3.532s-1.991-2.013-2.726-2.574-2.32-2.352-3.168-3.076a14.468,14.468,0,0,0-2.769-1.454c-.935-.524-2.609-1.374-2.766-2.06s.359-.7,1.741-1.035.94-.624,1.2-1.354.382-.706,1.519-1.122-1.315-1.287-1.651-1.761.758-.337,1.9-.606a1.542,1.542,0,0,0,1.382-1.29c.16-.476.11-.706-1.227-.683a25.9,25.9,0,0,0-5.288,1.182c-2.255.6-1.225.624-2.587,1.684s-1.452.6-1.272,1.185.264,1.14,1.649,1.871.8.748,1.185.853,1.317.247.893.374-.806.786-1.432.786-.893.646-1.961,1.247a5.7,5.7,0,0,1-2.32.813c-.781.125-1.34-.127-1.232-1.457s-.4-.434-1.227-.746a3.067,3.067,0,0,1-1.137-.666,9.434,9.434,0,0,0,1.654-.811,3.2,3.2,0,0,0,1.606-1.848c.4-1.018-.9-.459-1.831-.581s-.671-.21-1.584-.334a1.711,1.711,0,0,1-1.27-.851,2.778,2.778,0,0,0,1.2.082c.781-.082.606-.292.893-.5s.516-.4.292-.4-1.185.1-1.828.062a6.931,6.931,0,0,0-1.966,0c-.94.145-.559.5-1.227.933A2.382,2.382,0,0,0,531,203.3c-.357.641-.471.536-.716.953a5.768,5.768,0,0,0-.224,2.163,2.108,2.108,0,0,1-.6,1.517c-.424.581-.424.332-1.137.683s-.245.606-.334,1.312-.334.978-.4,1.891-.424.955-.98,1.6-.871.641-.916,1.31a7.893,7.893,0,0,0,0,2.242c.155,1.29.511.958,1.519,2.267s1.539.813,1.18,1.474-.289.419-1.519.272-1.424.04-2.317.893-1.075,1.332-1.542,1.644-.312-.624-.489-1.063-2.232-.581-3.639-1a16.892,16.892,0,0,0-2.143-.666,3.994,3.994,0,0,0-2.377.731c-1.472.808-1.137,1.277-1.035,2.337s1.27,1.277.935,3.769,1.24,1.342,1.908,2.871.067,1.4-.332,1.589-.806,1.494-1.107,2.741.032,1.4-.337,1.342-.8.22-1.5-.811-1.27-.06-1.374-.654-.97-1.589-.634-2.961.871-1.5-.337-2.213-.9-.813-1.472-2.28a8.262,8.262,0,0,0-1.8-3.083c-1.11-1.34-1.01-.965-.708-2.307s.536-3.086-.135-4.021a22.414,22.414,0,0,0-5.725-4.739c-2.275-1.212-2.741-.279-3.749-2.213s-1.467-3.959-3.143-5.146-.836-1.277-2.445-.681-1.641.841-1.507,1.3a3.992,3.992,0,0,1,.267,2.372c-.237,1.275-.569.873,1.105,1.868s.973.781,1.809,2.619a9.288,9.288,0,0,0,1.641,2.931,3.83,3.83,0,0,0,2.579,1.779c1.671.372,1.4-.095,1.836.312s-1.172.559-.868.746a15.158,15.158,0,0,0,2.075,1.591c1.407.871,2.849,1.776,3.218,2.462s1.6,3.27-.2,1.369-1.838-1.025-2.342.282.464,2.307.4,3.273-.905.6-1.477,1.372-.868,1.714-1.539,2.213-.469-.559-.833-.559-.5.466-.97,1.369,0,1.28.2,2.494.539,1.31-.768,1.25-1.008-1.282-2.208-2.09-1.908-.529-2.913-1.157.434-.776,2.946-1.088,2.811-.561,3.582-1.152.5-.751,1.34-1.933,0-1.654-.571-3.091a5.237,5.237,0,0,0-2.008-2.365,20.092,20.092,0,0,1-1.938-1.933c-.741-.811-1.512-.935-2.784-1.247s-1.035-1.467-1.739-1.806-1.407-1.342-3.013-2.839-1-2.619-1.741-3.926-1.469-2.307-3.081-2.307-2.811,1.122-4.418,2.679-1.272,2.307-3.145,1.125-2.542-1.06-3.886.06-1.6,2.247-1.6,4.49-1.606,1.31-2.879,1.931-2.41,2.183-4.35,5.862.132,1.931-.269,3.18.135,2.245-1.674,3.864-1.005-.187-2.073,1.125a5.234,5.234,0,0,1-5.091,2.055c-2.544-.312-1.808.686-3.415,1.06s-2.477.935-2.075-.873.067-1.559-3.011-1.434-4.153.935-3.886.5a10.723,10.723,0,0,0,.741-2.933c.337-1.744.8-2.307.337-2.307s-1.477.254-.738-2.866,1-3.679.669-5.485.13-4.243-.267-5.3.8-2.118.267-2.682-1.14-1.307-.736-1.307a28.307,28.307,0,0,1,4.216.434c2.148.374,4.35-.312,5.625-.187s3.951.686,6.625,1.125,2.612-.377,2.347-4.3.2-5.735-.606-6.548-1.669-.746-2.542-1.806-.2-2.619-2.073-3.183-3.956-.122-2.948-.5,1.4-.5.337-1.31-1.344-1.681-.539-1.811,3.078-.122,3.078-.122.2,1.122,1.409.624,2.744-1,2.412-1.808-.94-1.806-.743-1.806a4.073,4.073,0,0,0,3.215,1.12c2.547,0,2.342-.372,2.145-1.432s1.676-1,2.946-1.873-.471-1.868-.2-2.676,1.739-1.315,4.35-1.5,2.14-.626,1.876-.935.067-1.624.264-3.305-.2-2.245,1.142-3.056.935-.5,3.682-.751,1.068-.871,1.537-1,3.749-.935,4.353-1.187.539-.182,0-1.372-1.272-1.866-1.873-7.353-.469-5.485,2.876-6.483,2.614-.686,2.342,2.37-1.739,3.056-2.075,5.3-.062,3.614,1.339,5.987,1.275,1.182,4.285,1.182,2.345.748,4.35,1.434,1.339-1.245,3.285-1.936,1.537.439,6.089-.247c1.739-.262,2.33-.324,2.464-.334-.137.007-.639.015-.12-.289,1.07-.624,1.337-1.746,2.881-1.933s2.607.439,2.539-1.933-.935-1.993-.669-3.8.334-1,.469-2.43-.2-1.684,1.741-2.183.6,1.746,2.943,2.242,2.01.876,2.415-.933,1.674-4.178.534-4.051-1.4-.062-2.544-1.746-1.8-2.058-1.068-2.058a38.89,38.89,0,0,1,6.757-.561c3.547.122,4.555.434,4.752.06s-.6-.743.6-1.494,5.159.374,4.555-.312-4.083-1.621-6.426-1.245-8.035,1.06-8.908,1a6.218,6.218,0,0,1-2.879-1.12c-.4-.437-1.674-.751-1.674-2.806s.738-2.869-.469-4.864,2.208-3.679,4.555-5.8,1.741-3.866,3.143-3.991,1.948-.871,1.275-1.559-3.145-3.056-4.353-3.3-3.011-1.621-4.887,1.621.132,3.552.471,5.236-2.614,2.931-4.824,4.487-3.008,1.187-3.682,5.176-1.339,4.116,1.137,5.485,2.946,2.058,1.811,3.24-3.55,1.125-5.024,3.934-.868,4.173-1.472,5.42-2.474,1.806-3.013,3.056-.534,3.614-2.811,3.243-1-3.432-2.01-4.991-1.808-2.866-3.011-4.8-.264-3.8-1.407-4.8a5.557,5.557,0,0,1-1.407-2.991l-.4.935c-.4.938-.2,1.5-2.474,4.3a6.761,6.761,0,0,1-7.366,2.3c-1.671-.686-1.4-2.3-1.4-4.363a61.5,61.5,0,0,1-.067-8.042c.334-3.243,1.275-2.993,4.824-5.113s3.609-2,4.482-3.367,3.417-3.305,4.884-4.552,4.021-5.984,5.358-9.349,3.814-5.425,6.224-9.04,6.7-6.8,12.185-9.1,4.557-2.557,5.822-4.368,1.813-.746,3.954-1.182,1.806,0-.337,2.12-3.076,4.365-1.27,2.681,3.21-3.679,6.024-3.555,1.674,0,4.42,1.25,3.215,1.367,1.679,2.365a7.8,7.8,0,0,1-4.156.751,4.323,4.323,0,0,0,3.415,2.37c2.544.312,3.949-2,5.622-1.125s2.143,1.5-.135,1.31-2.943,1.247-.132,2.245a23.5,23.5,0,0,0,6.76,1.621c3.682.5,5.293,3.178,8.1,4.365s6.091.185,5.158,2.744.733,5.049-4.153,6.236-4.757-.379-8.835-1.626a72.311,72.311,0,0,1-6.962-2.492,26.494,26.494,0,0,0,2.943,3.18c1.873,1.744,2.075,3.365,1.873,6.548s-1.073,4.051,2.145,5.61,2.746,1.12,3.747.873,2.679-.561,2.275-1.063a4.8,4.8,0,0,0-1.806-1.931,1.186,1.186,0,0,1-.065-2.245c1.068-.564,2.07.5,4.418.374s0-.873,1.135-2.055,1.21-3.178,3.954-4.245,5.685.5,6.428-.681,1.539-2.557,0-4.365-2.746-2.43-1.811-3.305,2.814-3.18,3.684-1.871,3.081,2.746.269,2.494-.876,4.178,1.671,3.929,2.342-1.06,4.42-2.058,6.159-4.3,9.037-5.3,3.482-.746,4.617-.247,1.14,1.434,4.288.811,4.083-1.372,7.029-1.873-.2,1.063,1.135,1.5,1.474.811,2.482.13,4.218-1.811,2.746-2.933-2.549-1.871-2.549-1.871a4.007,4.007,0,0,1,3.886-2.18c2.809.185,7.092,2.8,9.84,4.674a39.547,39.547,0,0,1,6.094,5.859,7.335,7.335,0,0,0,.2-5.488c-1.005-3.425-3.547-2.617-3.547-5.857s-2.345-2.372-1.539-4.677,3.078-3.18,3.684-6.114,1.138-5.355,3.213-5.355,6.56.621,6.56.621a19.084,19.084,0,0,1-1.676,6.673c-1.671,3.989.873,4.425.471,9.289s-.471,5.485.669,6.608,3.285,2.494,2.477,4.612-1.2,3.43-4.216,4.615-6.83.5-5.428,1.437a13.388,13.388,0,0,0,5.223,2.053c2.01.312,1-.122,2.612-1.432s5.223-3.931,5.089-5.178-2.075-3.178-.736-4.116,1.871-2.365,3.949-1.182,4.086,5.612,4.086,5.425-.4-4.365-2.879-6.855-6.56-.13-6.56-2.307,1.135-5.178.868-7.548-1.2-4.737.337-6.792a7.331,7.331,0,0,0,1.606-3.679,8.782,8.782,0,0,1,.132,4.363c-.534,2.43.272,3.866,1.407,3.866s6.226.065,3.482-.748-3.547-1.559-.8-3.053,2.609-.5,6.625.434,4.954,1.621,6.3,1.561,1.138-.19.669-1.372A5.338,5.338,0,0,0,650.3,95.96c-1.275-.808-2.138.19-2.542-1.06s-1.138-4.363-1.474-5.548,1.005-.249,3.145-.249,7.967-.312,12.457-.437.067-4.8-.272-8.1,8.3-3.43,12.517-4.051,9.107-.437,17.007-2.307,2.814-1.559,3.949-3.8,3.083-2.619,5.425-2.619,4.487.437,3.617.748-3.482,1.619.6,2.5,3.016.806.871,1.557-.332,2.118,3.814,2.118,1.676-.372,1.005-1.744.606-.876,4.021-.312,4.752,1.122,6.628,2.866,2.208,1.312,2.876,3.744-.065,2.053-2.943,4.3-4.62,2.245-8.77,4.864-3.15,3.989-5.423,5.735-1.674,1.247,3.143,0,7.431-2.058,9.913-1.808,3.679,1.182,5.555,1.182-.132.314,5.76.314,5.016,0,2.876,1.684.4,2.183,3.013,2.183a59.5,59.5,0,0,0,8.232-.249c2.417-.374.339-2.183,3.218-2.307s3.814-.374,6.892-.374,2.143,1.247,3.215,2.37,2.542,1.868,1.539,4.113-1.539,2.3-.94,5.36,2.148,3.49,4.021,4.053,1.873-2.741,3.682-3.866,2.213,2.242,4.285,1.746a12.329,12.329,0,0,1,6.226.309,10.107,10.107,0,0,0,5.892.314c2.544-.561,1.741-1.557.873-3.116s-.94-1.437.666-3.056,2.679-.813,7.9.559,3.549,1.372,6.493,2.185,2.01.624,6.5,2.681,3.619,4.487,5.69,5.794,2.21,0,6.363-.372,4.083.5,8.636,1.684,3.345,2.679,3.345,3.991-1.27,2.307,1.542,2.928,3.949,1.185,6.361.561.267.624,5.625.683,3.55-.621,5.156.5,2.008,3.367,4.617,3.12,2.412-.19,1.34-2.5-1.741-2.684-.2-2.619,4.685.748,10.506,1.684,6.026,2,10.786,4.989,6.086,3.24,9.571,5.922a8.007,8.007,0,0,1,1.619,1.392,8.329,8.329,0,0,1,1.8.726c3.742,1.746,3.078,1.187,6.291,2.744a36.533,36.533,0,0,1,5.952,3.742S900.957,143.718,898.545,143.967Zm-312.36,63.365s-.357.476,1.519-1.02-.876-.062-1.946-.374-1.407-.813-1.07-2.183-.135-1.374-1.275-3.18c0,0-.6-.372-1.871.374s-2.008-.746-3.549-.187-3.215.312-4.153,2.622-2.008.808-2.34,2.676-3.218,2.869-3.218,2.869,1.142,1.122,2.01,2.183.269.377,1.137,3.869,1.477,3.178,2.682,3.674a26.857,26.857,0,0,1,3.078,1.686s-1.138-.688-1.138,1.185-1.808,3.178-1.609,5.922-2.474,5.3-.332,5.55,1.472,1.182,3.814,1.808a22.071,22.071,0,0,0,7.1,1.058c3.41,0,1.537-1.31,1.068-3.243a26.352,26.352,0,0,1-.868-5.3c-.135-2.118-.938-1.559-1.474-2.866s.267-2.06,1.871-2.06,1.813-.062.94-1.494-.329-2-1.409-2.622-1.536,2.06-1.536,2.06-.669-.624-.4-3.243.469-1.372-.332-1.871-1.277.122-2.347-1.619-.132-1.372-1.4-3.492-.606-1,.8-1,.666-.312,0-1-1.137-1.749.666-1.621,4.153.5,5.021.564S586.186,207.332,586.186,207.332ZM336.411,111.271c-.616,1.065,1.048,2.432,2.255,2.008s1.6.047,2.287-.5.751-1.352-.065-2.143-.486-1.255-.621-1.339C338.728,108.352,337.032,110.205,336.411,111.271ZM667.371,42.532c-1.811.06-3.819.125-2.143.686s1,3.365,4.216,1.806,2.544-1.684,4.757-2.619.928-.486-1.741-1.182C670.786,40.786,669.179,42.47,667.371,42.532Z" transform="translate(-76.004 -23.61)" fill="#e8e8e8"/>
</svg>
